<svg width="26" height="26" viewBox="0 0 26 26" fill="none" xmlns="http://www.w3.org/2000/svg">
<g clip-path="url(#clip0_1_1028)">
<path fill-rule="evenodd" clip-rule="evenodd" d="M1.19978 1.15913L9.69407 1.15741L16.5326 17.7586L17.9065 17.7452C18.2816 17.2658 19.5434 13.9334 19.8892 13.0925L21.7784 8.40607L20.0511 8.40796L17.2826 15.3931C16.848 14.8258 11.545 1.17592 11.0508 0.000342734L0.00288722 0L0.000488281 25.9997L14.4126 25.9842L13.9349 24.8496L1.15677 24.846L1.19996 1.15913H1.19978Z" fill="white"/>
<path fill-rule="evenodd" clip-rule="evenodd" d="M7.82495 13.9974C7.88544 13.5745 8.68651 11.8132 8.95194 11.2007L9.24718 10.5524C9.33114 10.4148 9.32292 10.433 9.40294 10.3485C9.75969 11.4831 10.6338 12.8745 10.9156 13.9825L7.82478 13.9974H7.82495ZM13.2944 1.11799L24.8308 1.16168C25.0072 2.1018 24.8634 19.1561 24.8725 22.0304C24.874 22.5159 24.8766 23.0009 24.8766 23.4865C24.8766 23.8159 25.0171 24.659 24.7443 24.8472L17.3845 24.8431L10.1142 8.31849L8.61969 8.33032L4.58057 17.6637L6.23275 17.6417L7.12549 15.4343L11.5534 15.4525L16.1266 25.9996L25.9971 25.9854L26.0001 0.000671387L12.8506 0.00598377L13.2945 1.11781L13.2944 1.11799Z" fill="white"/>
<path fill-rule="evenodd" clip-rule="evenodd" d="M24.7444 24.8472C25.0172 24.659 24.8767 23.8159 24.8767 23.4865C24.8767 23.0011 24.8741 22.5159 24.8726 22.0304C24.8635 19.1563 25.0072 2.10197 24.8309 1.16168L13.2944 1.11798C13.3195 1.13375 13.3496 1.15671 13.3703 1.16425C13.9409 1.37486 18.1446 1.22474 19.05 1.23006C20.9481 1.24085 22.8576 1.24274 24.7751 1.23502L24.7446 24.8472H24.7444Z" fill="white"/>
</g>
<defs>
<clipPath id="clip0_1_1028">
<rect width="26" height="26" fill="white"/>
</clipPath>
</defs>
</svg>
