<svg width="130" height="42" viewBox="0 0 130 42" fill="none" xmlns="http://www.w3.org/2000/svg">
<mask id="path-1-inside-1_199_396" fill="white">
<path d="M0 0H130V42H0V0Z"/>
</mask>
<path d="M130 40.5H0V43.5H130V40.5Z" fill="white" mask="url(#path-1-inside-1_199_396)"/>
<g clip-path="url(#clip0_199_396)">
<path fill-rule="evenodd" clip-rule="evenodd" d="M1.1993 9.15913L9.69358 9.15741L16.5321 25.7586L17.906 25.7452C18.2811 25.2658 19.5429 21.9334 19.8887 21.0925L21.7779 16.4061L20.0506 16.408L17.2821 23.3931C16.8475 22.8258 11.5445 9.17592 11.0504 8.00034L0.00239893 8L0 33.9997L14.4121 33.9842L13.9344 32.8496L1.15629 32.846L1.19947 9.15913H1.1993Z" fill="white"/>
<path fill-rule="evenodd" clip-rule="evenodd" d="M7.82447 21.9975C7.88495 21.5746 8.68603 19.8132 8.95145 19.2008L9.24669 18.5525C9.33065 18.4149 9.32243 18.4331 9.40245 18.3486C9.75921 19.4832 10.6333 20.8745 10.9152 21.9826L7.82429 21.9975H7.82447ZM13.2939 9.11805L24.8303 9.16175C25.0067 10.1019 24.8629 27.1562 24.872 30.0305C24.8735 30.516 24.8761 31.0009 24.8761 31.4866C24.8761 31.816 25.0166 32.6591 24.7438 32.8473L17.384 32.8431L10.1137 16.3186L8.6192 16.3304L4.58008 25.6637L6.23226 25.6418L7.12501 23.4344L11.5529 23.4526L16.1262 33.9997L25.9966 33.9855L25.9997 8.00073L12.8501 8.00604L13.294 9.11788L13.2939 9.11805Z" fill="white"/>
<path fill-rule="evenodd" clip-rule="evenodd" d="M24.7439 32.8473C25.0167 32.6591 24.8762 31.816 24.8762 31.4866C24.8762 31.0011 24.8736 30.516 24.8721 30.0305C24.863 27.1563 25.0067 10.102 24.8304 9.16174L13.2939 9.11804C13.319 9.13381 13.3491 9.15677 13.3699 9.16431C13.9405 9.37492 18.1441 9.2248 19.0495 9.23012C20.9476 9.24091 22.8571 9.2428 24.7746 9.23509L24.7441 32.8473H24.7439Z" fill="white"/>
</g>
<path d="M46.3 28L45.3 25.48H40.26L39.24 28H36.04L41.42 14.66H44.24L49.5 28H46.3ZM41.16 23.12H44.46L42.82 18.64L41.16 23.12ZM50.6552 28V19.08H53.5352V20.48C53.7952 19.98 54.1952 19.52 54.6552 19.24C55.1352 18.94 55.6352 18.86 56.1952 18.86C56.5552 18.86 56.8152 18.9 57.1352 19L56.9752 21.7C56.5952 21.5 56.1752 21.38 55.6752 21.38C55.0552 21.38 54.5952 21.6 54.2352 21.98C53.5952 22.66 53.5352 23.62 53.5352 24.38V28H50.6552ZM65.0309 19.28V21.9C64.3309 21.32 63.6109 21.22 63.1509 21.22C62.2509 21.22 61.7109 21.66 61.5109 21.86C61.1309 22.24 60.8509 22.82 60.8509 23.54C60.8509 24.2 61.0909 24.76 61.4509 25.14C61.8909 25.62 62.5509 25.86 63.1909 25.86C63.6909 25.86 64.3709 25.72 65.0309 25.16V27.76C64.2709 28.18 63.5509 28.3 62.7509 28.3C61.2509 28.3 60.1109 27.76 59.2909 26.96C58.6109 26.3 57.8909 25.18 57.8909 23.56C57.8909 22.04 58.5309 20.84 59.3709 20.04C60.3709 19.1 61.5509 18.78 62.7709 18.78C63.5509 18.78 64.2709 18.92 65.0309 19.28ZM67.0242 28V13.42H69.9042V20.14C70.2642 19.7 70.6442 19.4 70.9842 19.22C71.5842 18.9 72.0842 18.84 72.7242 18.84C73.4242 18.84 74.4642 18.94 75.2442 19.74C76.0642 20.56 76.1242 21.66 76.1242 22.34V28H73.2442V23.42C73.2442 22.8 73.2242 22.08 72.7642 21.64C72.5042 21.38 72.0642 21.24 71.6442 21.24C71.0242 21.24 70.6642 21.52 70.5042 21.68C69.9242 22.24 69.9042 23.1 69.9042 23.54V28H67.0242ZM78.57 19.08H81.45V28H78.57V19.08ZM78.33 15.28C78.33 14.34 79.07 13.6 80.01 13.6C80.95 13.6 81.69 14.34 81.69 15.28C81.69 16.22 80.95 16.96 80.01 16.96C79.07 16.96 78.33 16.22 78.33 15.28ZM87.5253 14.66H90.8453L94.2253 23.2L97.6053 14.66H100.925L95.2653 28H93.1853L87.5253 14.66ZM102.32 19.08H105.2V28H102.32V19.08ZM102.08 15.28C102.08 14.34 102.82 13.6 103.76 13.6C104.7 13.6 105.44 14.34 105.44 15.28C105.44 16.22 104.7 16.96 103.76 16.96C102.82 16.96 102.08 16.22 102.08 15.28ZM107.727 13.42H110.607V20.08C111.327 19.1 112.407 18.78 113.387 18.78C114.607 18.78 115.707 19.24 116.487 19.98C117.347 20.8 117.887 22.02 117.887 23.5C117.887 24.88 117.407 26.16 116.487 27.08C115.707 27.88 114.747 28.3 113.427 28.3C111.847 28.3 111.047 27.56 110.607 26.92V28H107.727V13.42ZM112.687 21.26C112.067 21.26 111.527 21.44 111.067 21.92C110.727 22.28 110.427 22.8 110.427 23.56C110.427 24.3 110.747 24.84 111.087 25.16C111.547 25.6 112.187 25.82 112.727 25.82C113.227 25.82 113.787 25.62 114.227 25.2C114.647 24.8 114.927 24.22 114.927 23.56C114.927 22.84 114.647 22.26 114.227 21.86C113.767 21.42 113.267 21.26 112.687 21.26ZM122.259 22.32H126.159C126.139 22.24 125.999 21.68 125.579 21.28C125.259 20.98 124.799 20.78 124.219 20.78C123.479 20.78 123.039 21.08 122.759 21.36C122.539 21.6 122.339 21.92 122.259 22.32ZM128.819 23.74V24.04H122.159C122.159 24.52 122.339 25.16 122.699 25.56C123.139 26.04 123.739 26.12 124.179 26.12C124.599 26.12 125.039 26.04 125.339 25.86C125.379 25.84 125.719 25.62 125.959 25.12L128.679 25.4C128.279 26.66 127.479 27.32 126.959 27.64C126.099 28.16 125.139 28.3 124.139 28.3C122.799 28.3 121.619 28.06 120.579 27.02C119.799 26.24 119.239 25.06 119.239 23.58C119.239 22.3 119.699 20.98 120.599 20.06C121.679 18.98 123.019 18.78 124.019 18.78C125.019 18.78 126.459 18.96 127.559 20.12C128.619 21.24 128.819 22.64 128.819 23.74Z" fill="white"/>
<defs>
<clipPath id="clip0_199_396">
<rect width="26" height="26" fill="white" transform="translate(0 8)"/>
</clipPath>
</defs>
</svg>
