<svg width="154" height="42" viewBox="0 0 154 42" fill="none" xmlns="http://www.w3.org/2000/svg">
<mask id="path-1-inside-1_436_505" fill="white">
<path d="M0 0H154V42H0V0Z"/>
</mask>
<path d="M154 40.5H0V43.5H154V40.5Z" fill="white" mask="url(#path-1-inside-1_436_505)"/>
<path d="M10.102 8.01756C7.99474 8.20231 5.99771 8.94059 4.36106 10.1623C1.85295 12.0306 0.307808 14.7553 0.0345274 17.8453C-0.102113 19.3948 0.172617 21.1902 0.755616 22.6234C1.45096 24.3368 2.4837 25.7299 3.88958 26.9129C5.5991 28.3521 7.83077 29.2559 10.102 29.4377C10.8004 29.4913 11.9418 29.4516 12.5704 29.3563C13.791 29.1745 14.7681 28.8702 15.843 28.3518C18.9918 26.8351 21.2324 23.9359 21.8336 20.533C22.0401 19.3709 22.0214 18.0387 21.8059 16.8408C21.5265 15.2764 20.8426 13.727 19.8922 12.4428C19.4823 11.8915 19.1508 11.5134 18.6164 11.0039C16.8644 9.33523 14.6811 8.33971 12.1821 8.04471C11.8208 8.00002 10.4786 7.98479 10.102 8.01756ZM12.4872 10.0808C12.5418 10.1017 12.6358 10.16 12.6813 10.2166C12.7603 10.306 12.7489 10.3182 12.7368 10.4881C12.7216 10.7294 12.6491 10.8182 12.3485 10.9225C12.0722 11.0178 7.99298 12.259 7.07901 12.5242C6.51119 12.6911 6.05284 12.8808 6.05284 12.9314C6.05284 12.9672 6.12129 12.9887 6.57979 13.2301C6.82271 13.3582 7.08023 13.5112 7.16221 13.5559C7.24723 13.6005 7.542 13.7446 7.8001 13.8816C8.0582 14.0157 8.52565 14.2365 8.82626 14.3975C10.0378 15.0411 10.0889 15.0791 10.6567 15.0762C11.2336 15.0732 11.6704 14.9841 12.9032 14.6146C13.3283 14.4865 14.0628 14.269 14.5395 14.126C15.9757 13.6939 16.907 13.4224 17.1742 13.3658C17.5417 13.2883 18.0826 13.3095 18.45 13.393C18.9966 13.5181 19.4817 13.8101 19.6426 14.126C19.7398 14.3167 19.7276 14.5656 19.6426 14.7504C19.5181 15.0156 19.1267 15.2265 18.4223 15.4291C18.1976 15.4946 17.3657 15.7579 16.5641 15.9992C15.7625 16.2406 14.7207 16.5438 14.2622 16.6779C12.7804 17.1189 12.4515 17.2639 12.1266 17.5738C11.9171 17.7675 11.8086 17.9817 11.7661 18.2797C11.7479 18.3989 11.7383 20.0251 11.7383 22.3791C11.7383 24.8821 11.7288 26.3262 11.7106 26.4514C11.6469 26.8447 11.4132 27.1741 11.1005 27.3201C10.9578 27.3857 10.8875 27.4016 10.6567 27.4016C10.4108 27.4016 10.3614 27.3794 10.1852 27.293C9.90892 27.1589 9.63156 26.8612 9.49188 26.5871C9.30058 26.2027 9.27304 26.1723 9.27001 23.8451C9.26394 20.3201 9.23843 18.0453 9.18681 17.8725C9.08357 17.5387 8.85297 17.2004 8.57665 17.0037C8.48252 16.9382 8.22541 16.8123 8.02197 16.7051C7.81853 16.5978 7.42598 16.3713 7.13448 16.2164C6.84298 16.0585 6.19331 15.7244 5.6923 15.4562C5.19128 15.191 4.55762 14.8573 4.30559 14.7232C3.78939 14.4402 3.50231 14.2885 3.36263 14.2617C3.18044 14.2319 3.18671 14.0203 3.16849 18.6598C3.15331 22.8642 3.14905 22.8959 3.08529 22.9764C2.97597 23.1224 2.88264 23.1664 2.72474 23.1664C2.53648 23.1664 2.38464 23.08 2.30873 22.9221C2.248 22.7999 2.27189 22.7679 2.281 18.5783C2.28707 14.7344 2.29092 14.3326 2.33646 14.2074C2.52472 13.683 2.79926 13.4138 3.25169 13.393C3.67983 13.3721 3.87062 13.437 5.49816 14.316C5.91719 14.5425 6.51968 14.8821 6.8294 15.049C7.98629 15.6658 8.81696 16.1154 9.0204 16.2435C9.54267 16.5743 9.86782 17.009 10.0743 17.6824L10.1575 17.9268V21.8904C10.1666 24.0686 10.2008 25.8938 10.213 25.9355C10.2251 25.9773 10.2533 26.0359 10.2684 26.0984C10.317 26.2802 10.5387 26.5328 10.6845 26.5328C10.8089 26.5328 10.8079 26.5819 10.8231 22.2434L10.8509 18.0896L10.9063 17.8725C11.1462 17.1782 11.5955 16.7279 12.3485 16.3793C12.6491 16.2392 12.7474 16.2138 14.2899 15.7549C14.8486 15.588 15.6108 15.3705 15.9539 15.2662C16.2971 15.1619 16.9467 14.9629 17.3961 14.8318C18.304 14.5637 18.6442 14.4302 18.6442 14.3975C18.6442 14.3587 18.3905 14.2793 18.1172 14.2346C17.8895 14.1958 17.7903 14.2048 17.5625 14.2346C17.1314 14.2882 17.0672 14.3047 14.4286 15.1033C12.8101 15.592 12.6641 15.6178 12.1266 15.7549C10.827 16.0826 10.0769 16.0452 9.21454 15.6191C8.94733 15.485 8.12902 15.0583 7.24541 14.5875C6.95391 14.4296 6.54881 14.215 6.33019 14.0988C6.1146 13.9856 5.85101 13.8538 5.74777 13.8002C5.32266 13.5737 5.08215 13.2741 5.08215 12.9314C5.08215 12.4308 5.5644 12.0322 6.49659 11.7641C7.13728 11.5793 10.8837 10.4467 11.4333 10.2709C11.8887 10.1249 12.2301 10.0325 12.3485 10.0266C12.3698 10.0236 12.4325 10.057 12.4872 10.0808Z" fill="white"/>
<path d="M20.7797 30.0622C20.8347 30.3628 20.964 30.5058 21.2512 30.5237C21.41 30.5326 21.4677 30.5289 21.5562 30.4694C21.7059 30.3711 21.7567 30.253 21.7781 30.0893L21.8059 29.9536H21.6117C21.4681 29.9536 21.4176 29.9721 21.4176 30.0079C21.4176 30.1002 21.3461 30.1979 21.2789 30.1979C21.1995 30.1979 21.1677 30.1511 21.1402 30.035C21.1219 29.9576 21.1233 29.9536 20.9461 29.9536H20.752L20.7797 30.0622Z" fill="white"/>
<path d="M3.88942 30.7679C3.61599 30.836 3.47262 30.9779 3.41794 31.2295C3.39667 31.3271 3.38413 31.6895 3.39021 32.234C3.39932 33.0389 3.41265 33.0989 3.47341 33.2113C3.5524 33.3563 3.61404 33.4266 3.75075 33.4828C4.01202 33.5864 4.37922 33.5617 4.58277 33.4285C4.63746 33.39 4.70665 33.2823 4.74918 33.2113L4.83238 33.0756V32.1525C4.83238 31.2411 4.83768 31.182 4.77691 31.0666C4.74046 31.0015 4.67166 30.9303 4.63824 30.9037C4.49242 30.7764 4.12335 30.7117 3.88942 30.7679ZM4.30543 31.2838C4.36619 31.3577 4.3609 31.4127 4.3609 32.1525C4.3609 32.8923 4.36619 32.9201 4.30543 32.9941C4.25682 33.0533 4.20244 33.0756 4.11129 33.0756C4.02015 33.0756 3.9935 33.0533 3.94489 32.9941C3.88413 32.9201 3.86169 32.8923 3.86169 32.1525C3.86169 31.4127 3.88413 31.3577 3.94489 31.2838C3.9935 31.2246 4.02015 31.2023 4.11129 31.2023C4.20244 31.2023 4.25682 31.2246 4.30543 31.2838Z" fill="white"/>
<path d="M14.4288 30.768C14.2606 30.8191 14.0855 30.9795 14.0405 31.1481C13.9954 31.3046 13.9984 32.9433 14.0405 33.1028C14.0615 33.172 14.1318 33.2749 14.2069 33.3471C14.4562 33.5969 14.9006 33.5969 15.1498 33.3471C15.294 33.2057 15.344 33.078 15.344 32.8041V32.6141H15.0944H14.8725V32.777C14.8725 32.9756 14.8105 33.0756 14.6784 33.0756C14.5102 33.0756 14.4842 33.0463 14.4842 32.1254C14.4842 31.349 14.4886 31.2747 14.5397 31.2295C14.5697 31.1994 14.6363 31.1752 14.6784 31.1752C14.7985 31.1752 14.8725 31.2813 14.8725 31.4739V31.6367H15.0944H15.344V31.4467C15.344 31.1909 15.3037 31.0452 15.1776 30.9037C15.0064 30.7141 14.7141 30.6777 14.4288 30.768Z" fill="white"/>
<path d="M19.2543 30.768C19.1087 30.8007 18.9418 30.9358 18.866 31.0666C18.8205 31.1528 18.8105 31.2514 18.8105 32.1254C18.8105 33.2075 18.8076 33.2107 19.0047 33.3742C19.3049 33.621 19.9169 33.5841 20.1141 33.2928C20.2323 33.1144 20.2649 32.9087 20.2527 32.0168C20.2436 31.2557 20.2302 31.1766 20.1695 31.0666C20.0907 30.9209 20.0408 30.8546 19.8922 30.7951C19.7497 30.7357 19.415 30.7293 19.2543 30.768ZM19.698 31.2566C19.7526 31.3161 19.7535 31.3703 19.7535 32.1254C19.7535 32.8805 19.7526 32.9618 19.698 33.0213C19.6586 33.0629 19.6044 33.0756 19.5316 33.0756C19.2951 33.0756 19.282 33.0288 19.282 32.0982C19.282 31.3461 19.2799 31.3131 19.3375 31.2566C19.4224 31.1734 19.6192 31.1734 19.698 31.2566Z" fill="white"/>
<path d="M0.00585938 32.1254V33.51H0.227733H0.449606V32.3426V31.1752H0.643745H0.865619V32.3426V33.51H1.08749H1.3371V32.1254V30.7409H0.67148H0.00585938V32.1254Z" fill="white"/>
<path d="M1.72656 32.1254V33.51H1.94844H2.17031V32.967V32.4512L2.44765 32.4241C2.77079 32.4033 2.93645 32.3186 3.03007 32.1254C3.08443 32.0125 3.08554 31.939 3.08554 31.5825C3.08554 31.0803 3.03167 30.9802 2.8082 30.8495C2.6723 30.7722 2.65104 30.7528 2.19804 30.7409H1.72656V32.1254ZM2.55859 31.2567C2.60691 31.3102 2.61406 31.3749 2.61406 31.6096C2.61406 31.8711 2.62503 31.8819 2.55859 31.9354C2.51027 31.974 2.43637 31.9897 2.33671 31.9897H2.17031V31.5825V31.2024H2.33671C2.46355 31.2024 2.51329 31.2091 2.55859 31.2567Z" fill="white"/>
<path d="M5.13867 32.1254V33.51H5.36055H5.55468L5.58242 32.6956V31.854L5.77656 32.4241L5.94296 32.9942H6.08163C6.20348 32.9942 6.1868 33.0107 6.2203 32.8856C6.23858 32.8171 6.32915 32.5232 6.41444 32.2612L6.58085 31.7997V32.6413V33.51H6.77499H6.99686V32.1254V30.7409H6.77499H6.55311L6.41444 31.1209C6.34438 31.3383 6.25349 31.6876 6.19257 31.8811C6.1286 32.0746 6.06304 32.24 6.0539 32.234C6.04781 32.2251 5.98529 32.0077 5.91523 31.7725C5.84212 31.5403 5.74514 31.2092 5.69336 31.0395L5.58242 30.7409H5.36055H5.13867V32.1254Z" fill="white"/>
<path d="M7.38477 32.1254V33.51H7.60664H7.82851V32.3426V31.1752H8.13359H8.41093V30.9581V30.7409H7.91172H7.38477V32.1254Z" fill="white"/>
<path d="M8.66016 32.1254V33.51H8.90976H9.13164V32.967V32.4512H9.32578C9.5579 32.4512 9.78399 32.3624 9.88046 32.2612C10.0221 32.1153 10.0469 31.9937 10.0469 31.6096C10.0469 31.1987 10.0041 31.0709 9.88046 30.9309C9.7448 30.779 9.5796 30.7409 9.07617 30.7409H8.66016V32.1254ZM9.49218 31.2567C9.54343 31.3073 9.57538 31.3383 9.57538 31.5825C9.57538 31.9308 9.53318 31.9897 9.29804 31.9897H9.13164V31.5825V31.1752H9.29804C9.40958 31.1752 9.44696 31.212 9.49218 31.2567Z" fill="white"/>
<path d="M10.7672 30.7951C10.7581 30.8248 10.6573 31.2333 10.5453 31.691C10.4364 32.1487 10.276 32.7296 10.2125 32.9941C10.1459 33.2616 10.1016 33.504 10.1016 33.5099C10.1016 33.5159 10.1994 33.5099 10.3234 33.5099H10.5453L10.573 33.4013C10.5882 33.3419 10.6164 33.2466 10.6285 33.1841L10.6562 33.0756H10.9336H11.2109L11.2664 33.2656L11.2941 33.4828L11.5437 33.5099C11.7616 33.5188 11.7807 33.5032 11.7656 33.4556C11.7505 33.3992 11.3985 31.9809 11.2109 31.2023L11.1 30.7408H10.9336C10.8095 30.7408 10.7793 30.7565 10.7672 30.7951ZM11.0445 32.2068L11.1277 32.6412H10.9336C10.8368 32.6471 10.7455 32.6471 10.7394 32.6412C10.7334 32.6352 10.7712 32.4234 10.8227 32.1797C10.8711 31.9389 10.9306 31.727 10.9336 31.7181C10.9396 31.6736 10.9659 31.8115 11.0445 32.2068Z" fill="white"/>
<path d="M12.2371 31.7182C12.2371 32.3247 12.2307 32.7629 12.2094 32.8313C12.1697 32.974 12.0882 33.0485 11.9875 33.0485H11.9043V33.51C11.9043 33.9946 11.8996 33.9987 12.043 33.9987C12.0674 33.9987 12.1609 34.0017 12.2371 33.9987L12.3481 33.9715V33.7543V33.51H12.8195H13.2633V33.7543V33.9715L13.402 33.9987C13.4721 34.0017 13.5811 33.9957 13.6238 33.9987H13.6793L13.707 33.5372V33.0485H13.5961H13.4852V31.9082V30.7409H12.875H12.2371V31.7182ZM13.0137 32.1254V33.0485H12.7918C12.6759 33.0485 12.5699 33.0574 12.5699 33.0485C12.5699 33.0425 12.601 32.9536 12.6254 32.8584C12.659 32.7306 12.6531 32.5062 12.6531 31.9354V31.1752H12.8473H13.0137V32.1254Z" fill="white"/>
<path d="M15.4551 30.9581V31.1752H15.677H15.8988V32.3426V33.51H16.1484H16.398V32.3426V31.1752H16.6199H16.8418V30.9581V30.7409H16.1484H15.4551V30.9581Z" fill="white"/>
<path d="M17.0918 32.1254V33.51H17.3414H17.591V32.967V32.4512H17.7574C18.1008 32.4512 18.3475 32.3216 18.4508 32.0983C18.5328 31.9226 18.5328 31.2695 18.4508 31.0938C18.3262 30.8228 18.103 30.7409 17.4801 30.7409H17.0918V32.1254ZM17.9516 31.2567C18.0032 31.3073 18.007 31.3383 18.007 31.5825C18.007 31.9308 17.9667 31.9897 17.7297 31.9897H17.591V31.5825V31.1752H17.7297C17.8421 31.1752 17.906 31.212 17.9516 31.2567Z" fill="white"/>
<path d="M20.5586 32.1254V33.51H20.7527L20.9469 33.4829L21.2519 32.6684L21.5293 31.8268V32.6684V33.51H21.7512L21.973 33.4829L22.0008 32.1254V30.7409H21.8066H21.6125L21.3906 31.3381C21.2771 31.6623 21.1377 32.031 21.0855 32.1797L21.0023 32.4512L20.9746 31.5825V30.7409H20.7805H20.5586V32.1254Z" fill="white"/>
<path d="M33.368 15.494H36.86C38.21 15.494 39.146 15.638 40.028 16.412C41 17.276 41.252 18.446 41.252 19.31C41.252 19.778 41.18 21.074 40.262 21.992C39.596 22.658 38.606 23.054 37.22 23.054H35.708V27.5H33.368V15.494ZM35.708 17.51V21.038H36.662C37.112 21.038 37.688 21.038 38.192 20.66C38.624 20.318 38.84 19.778 38.84 19.256C38.84 18.59 38.516 18.14 38.174 17.888C37.688 17.546 37.076 17.51 36.518 17.51H35.708ZM42.6592 27.5V19.706H44.8552V20.876C45.1972 20.21 45.6652 19.886 45.8272 19.796C46.1692 19.58 46.6012 19.454 47.1232 19.454C47.5012 19.454 47.8072 19.544 48.0592 19.634L47.7712 21.686C47.4832 21.488 47.1952 21.398 46.7452 21.398C46.3312 21.398 45.7192 21.488 45.2872 22.028C44.8732 22.55 44.8552 23.216 44.8552 23.756V27.5H42.6592ZM53.0378 19.454C54.5138 19.454 55.5218 19.94 56.1878 20.552C56.9618 21.254 57.5018 22.334 57.5018 23.612C57.5018 24.872 56.9618 25.952 56.1878 26.654C55.5218 27.266 54.5138 27.752 53.0378 27.752C51.5618 27.752 50.5538 27.266 49.8878 26.654C49.1138 25.952 48.5738 24.872 48.5738 23.612C48.5738 22.334 49.1138 21.254 49.8878 20.552C50.5538 19.94 51.5618 19.454 53.0378 19.454ZM53.0378 25.808C54.3158 25.808 55.2338 24.8 55.2338 23.612C55.2338 22.388 54.2978 21.398 53.0378 21.398C51.7778 21.398 50.8418 22.388 50.8418 23.612C50.8418 24.8 51.7598 25.808 53.0378 25.808ZM59.2003 27.5V19.706H61.3963V20.588C62.2243 19.544 63.2503 19.454 63.7183 19.454C65.3563 19.454 65.9863 20.48 66.1843 20.876C66.5623 20.264 67.3363 19.454 68.6863 19.454C69.8923 19.454 70.4863 20.012 70.7923 20.408C71.2963 21.074 71.3323 21.74 71.3323 22.604V27.5H69.1363V23.252C69.1363 22.334 68.9383 21.92 68.7763 21.722C68.4883 21.362 68.0923 21.326 67.8763 21.326C67.2823 21.326 66.9043 21.596 66.6703 22.01C66.3823 22.478 66.3643 23.108 66.3643 23.522V27.5H64.1683V23.252C64.1683 22.334 63.9703 21.92 63.8083 21.722C63.5203 21.362 63.1243 21.326 62.9082 21.326C62.3143 21.326 61.9363 21.596 61.7023 22.01C61.4143 22.478 61.3963 23.108 61.3963 23.522V27.5H59.2003ZM79.361 20.714V19.706H81.557V27.14C81.557 28.328 81.449 29.57 80.477 30.542C79.937 31.082 79.001 31.64 77.399 31.64C75.887 31.64 74.987 31.19 74.483 30.74C73.871 30.218 73.403 29.3 73.223 28.418H75.599C75.689 28.778 75.887 29.138 76.139 29.354C76.571 29.75 77.165 29.768 77.471 29.768C78.101 29.768 78.515 29.552 78.803 29.282C79.307 28.796 79.361 28.184 79.361 27.554V26.456C78.605 27.608 77.561 27.752 76.967 27.752C75.923 27.752 75.023 27.428 74.267 26.69C73.691 26.114 73.025 25.106 73.025 23.594C73.025 22.37 73.475 21.236 74.231 20.498C74.915 19.832 75.869 19.454 76.913 19.454C78.371 19.454 79.055 20.246 79.361 20.714ZM77.453 21.398C76.751 21.398 76.265 21.686 75.995 21.938C75.635 22.262 75.293 22.784 75.293 23.594C75.293 24.278 75.545 24.782 75.869 25.124C76.337 25.628 76.931 25.808 77.453 25.808C77.993 25.808 78.533 25.61 78.911 25.268C79.361 24.854 79.613 24.224 79.613 23.594C79.613 22.856 79.289 22.352 78.983 22.028C78.551 21.578 78.047 21.398 77.453 21.398ZM83.6514 27.5V19.706H85.8474V20.876C86.1894 20.21 86.6574 19.886 86.8194 19.796C87.1614 19.58 87.5934 19.454 88.1154 19.454C88.4934 19.454 88.7994 19.544 89.0514 19.634L88.7634 21.686C88.4754 21.488 88.1874 21.398 87.7374 21.398C87.3234 21.398 86.7114 21.488 86.2794 22.028C85.8654 22.55 85.8474 23.216 85.8474 23.756V27.5H83.6514ZM95.938 20.714V19.706H98.134V27.5H95.938V26.492C95.146 27.626 94.102 27.752 93.544 27.752C91.15 27.752 89.566 25.88 89.566 23.594C89.566 21.29 91.132 19.454 93.436 19.454C94.03 19.454 95.2 19.562 95.938 20.714ZM93.994 21.398C92.734 21.398 91.834 22.352 91.834 23.594C91.834 24.836 92.734 25.808 93.994 25.808C95.254 25.808 96.154 24.836 96.154 23.594C96.154 22.352 95.254 21.398 93.994 21.398ZM106.204 20.714V14.378H108.4V27.5H106.204V26.492C105.412 27.626 104.368 27.752 103.81 27.752C101.416 27.752 99.8316 25.88 99.8316 23.594C99.8316 21.29 101.398 19.454 103.702 19.454C104.296 19.454 105.466 19.562 106.204 20.714ZM104.26 21.398C103 21.398 102.1 22.352 102.1 23.594C102.1 24.836 103 25.808 104.26 25.808C105.52 25.808 106.42 24.836 106.42 23.594C106.42 22.352 105.52 21.398 104.26 21.398Z" fill="white"/>
</svg>
