<svg width="154" height="42" viewBox="0 0 154 42" fill="none" xmlns="http://www.w3.org/2000/svg">
<mask id="path-1-inside-1_436_523" fill="white">
<path d="M0 0H154V42H0V0Z"/>
</mask>
<path d="M154 40.5H0V43.5H154V40.5Z" fill="white" mask="url(#path-1-inside-1_436_523)"/>
<g clip-path="url(#clip0_436_523)">
<path fill-rule="evenodd" clip-rule="evenodd" d="M1.1993 9.15913L9.69358 9.15741L16.5321 25.7586L17.906 25.7452C18.2811 25.2658 19.5429 21.9334 19.8887 21.0925L21.7779 16.4061L20.0506 16.408L17.2821 23.3931C16.8475 22.8258 11.5445 9.17592 11.0504 8.00034L0.00239893 8L0 33.9997L14.4121 33.9842L13.9344 32.8496L1.15629 32.846L1.19947 9.15913H1.1993Z" fill="white"/>
<path fill-rule="evenodd" clip-rule="evenodd" d="M7.82447 21.9975C7.88495 21.5746 8.68603 19.8132 8.95145 19.2008L9.24669 18.5525C9.33065 18.4149 9.32243 18.4331 9.40245 18.3486C9.75921 19.4832 10.6333 20.8745 10.9152 21.9826L7.82429 21.9975H7.82447ZM13.2939 9.11805L24.8303 9.16175C25.0067 10.1019 24.8629 27.1562 24.872 30.0305C24.8735 30.516 24.8761 31.0009 24.8761 31.4866C24.8761 31.816 25.0166 32.6591 24.7438 32.8473L17.384 32.8431L10.1137 16.3186L8.6192 16.3304L4.58008 25.6637L6.23226 25.6418L7.12501 23.4344L11.5529 23.4526L16.1262 33.9997L25.9966 33.9855L25.9997 8.00073L12.8501 8.00604L13.294 9.11788L13.2939 9.11805Z" fill="white"/>
<path fill-rule="evenodd" clip-rule="evenodd" d="M24.7429 32.8473C25.0157 32.6591 24.8752 31.816 24.8752 31.4866C24.8752 31.0011 24.8726 30.516 24.8711 30.0305C24.862 27.1563 25.0058 10.102 24.8294 9.16174L13.293 9.11804C13.318 9.13381 13.3481 9.15677 13.3689 9.16431C13.9395 9.37492 18.1431 9.2248 19.0485 9.23012C20.9466 9.24091 22.8562 9.2428 24.7736 9.23509L24.7431 32.8473H24.7429Z" fill="white"/>
</g>
<path d="M45.54 27.5L44.478 24.98H39.636L38.574 27.5H36.036L41.202 15.494H43.038L48.06 27.5H45.54ZM40.374 23.072H43.794L42.084 18.752L40.374 23.072ZM49.1378 27.5V19.706H51.3338V20.876C51.6758 20.21 52.1438 19.886 52.3058 19.796C52.6478 19.58 53.0798 19.454 53.6018 19.454C53.9798 19.454 54.2858 19.544 54.5378 19.634L54.2498 21.686C53.9618 21.488 53.6738 21.398 53.2238 21.398C52.8098 21.398 52.1978 21.488 51.7658 22.028C51.3518 22.55 51.3338 23.216 51.3338 23.756V27.5H49.1378ZM61.2987 19.922V22.082C60.8307 21.65 60.2547 21.398 59.4987 21.398C58.0407 21.398 57.3027 22.46 57.3027 23.594C57.3027 24.872 58.2567 25.808 59.5707 25.808C60.0567 25.808 60.7047 25.664 61.2987 25.124V27.266C60.8667 27.482 60.1827 27.752 59.2827 27.752C58.0587 27.752 56.9787 27.284 56.2767 26.618C55.6827 26.06 55.0347 25.088 55.0347 23.63C55.0347 22.262 55.5927 21.164 56.3847 20.462C57.3387 19.616 58.4367 19.454 59.1927 19.454C60.0027 19.454 60.6687 19.616 61.2987 19.922ZM62.9542 27.5V14.378H65.1502V20.714C65.5642 20.138 66.3022 19.454 67.5622 19.454C68.2462 19.454 69.2542 19.652 69.8662 20.408C70.4062 21.074 70.4782 21.848 70.4782 22.604V27.5H68.2822V23.252C68.2822 22.82 68.2642 22.136 67.8682 21.722C67.5262 21.362 67.0582 21.326 66.8422 21.326C66.2662 21.326 65.8162 21.524 65.4922 22.01C65.1682 22.514 65.1502 23.072 65.1502 23.522V27.5H62.9542ZM72.5694 19.706H74.7654V27.5H72.5694V19.706ZM72.3534 16.412C72.3534 15.692 72.9474 15.098 73.6674 15.098C74.3874 15.098 74.9814 15.692 74.9814 16.412C74.9814 17.132 74.3874 17.726 73.6674 17.726C72.9474 17.726 72.3534 17.132 72.3534 16.412ZM80.0516 15.494H82.6076L85.8116 23.558L89.0156 15.494H91.5716L86.4956 27.5H85.0916L80.0516 15.494ZM92.6436 19.706H94.8396V27.5H92.6436V19.706ZM92.4276 16.412C92.4276 15.692 93.0216 15.098 93.7416 15.098C94.4616 15.098 95.0556 15.692 95.0556 16.412C95.0556 17.132 94.4616 17.726 93.7416 17.726C93.0216 17.726 92.4276 17.132 92.4276 16.412ZM99.1287 14.378V20.714C99.9027 19.634 101.001 19.454 101.667 19.454C103.971 19.454 105.501 21.236 105.501 23.594C105.501 25.97 103.917 27.752 101.613 27.752C101.109 27.752 99.9747 27.662 99.1287 26.492V27.5H96.9327V14.378H99.1287ZM101.073 21.398C99.8127 21.398 98.9127 22.352 98.9127 23.594C98.9127 24.836 99.8127 25.808 101.073 25.808C102.333 25.808 103.233 24.836 103.233 23.594C103.233 22.352 102.333 21.398 101.073 21.398ZM112.832 24.998L114.848 25.322C114.614 25.898 113.732 27.752 111.014 27.752C109.754 27.752 108.8 27.392 108.026 26.654C107.162 25.844 106.802 24.836 106.802 23.612C106.802 22.064 107.432 21.11 107.99 20.552C108.908 19.652 109.988 19.454 110.924 19.454C112.508 19.454 113.426 20.084 113.966 20.732C114.794 21.722 114.902 22.946 114.902 23.792V23.972H109.07C109.07 24.44 109.196 24.944 109.448 25.286C109.682 25.61 110.168 26.024 111.014 26.024C111.842 26.024 112.472 25.628 112.832 24.998ZM109.142 22.568H112.832C112.652 21.506 111.788 21.002 110.978 21.002C110.168 21.002 109.322 21.524 109.142 22.568Z" fill="white"/>
<defs>
<clipPath id="clip0_436_523">
<rect width="26" height="26" fill="white" transform="translate(0 8)"/>
</clipPath>
</defs>
</svg>
