<svg width="91" height="42" viewBox="0 0 91 42" fill="none" xmlns="http://www.w3.org/2000/svg">
<mask id="path-1-inside-1_145_69" fill="white">
<path d="M0 0H91V42H0V0Z"/>
</mask>
<path d="M91 40.5H0V43.5H91V40.5Z" fill="white" mask="url(#path-1-inside-1_145_69)"/>
<path d="M8.34375 21V34L8.61612 33.9347C8.76311 33.8975 9.4289 33.7203 10.0947 33.5432C10.7605 33.3661 11.7159 33.1144 12.2131 32.9839C12.7146 32.858 13.2031 32.7275 13.3069 32.6995L13.4885 32.6436V32.4199C13.4885 32.2054 13.4971 32.1915 13.5879 32.2148C14.4137 32.4199 14.3704 32.4199 15.0968 32.2194C15.4124 32.1355 16.2597 31.9118 16.9817 31.7207L18.2874 31.3758V30.9889V30.5973L18.603 30.6253C18.7716 30.6393 19.2947 30.6766 19.7616 30.7046L20.609 30.7558L21.6639 30.4762C22.2432 30.3223 22.7836 30.1825 22.8614 30.1639L22.9998 30.1312V22.9344V15.7329L21.8498 15.1269C21.2142 14.796 20.6479 14.5256 20.583 14.5256C20.5225 14.5256 20.1896 14.5862 19.8437 14.6608C19.4979 14.7354 19.1477 14.8053 19.0656 14.824L18.9142 14.8519L18.6116 14.0642L18.309 13.2718L17.8334 13.0294C17.574 12.8942 16.8607 12.5213 16.2554 12.2044C15.6501 11.8874 14.9887 11.5425 14.7855 11.4399L14.418 11.2535L14.0073 11.4073C13.7825 11.4912 13.5706 11.5658 13.5447 11.5798C13.5015 11.5938 13.4885 11.4959 13.4885 11.1743V10.7454L11.3614 9.61276C10.1898 8.98817 9.03116 8.37289 8.78905 8.23772L8.34375 8V21Z" fill="white"/>
<path d="M1.9282 12.3675C2.17895 12.7637 2.17895 12.7963 2.19624 15.4765C2.20489 17.6113 2.20056 17.9702 2.14004 18.1893C1.93684 18.949 1.23647 19.8113 0.328571 20.4173C0.146993 20.5431 0 20.6504 0 20.6643C0 20.6737 0.129699 20.669 0.293985 20.655C0.453947 20.6364 0.773872 20.6457 1.00733 20.6737C1.69474 20.7576 1.98872 20.9766 2.13571 21.5127C2.19624 21.7364 2.20489 22.2352 2.20489 25.6984C2.20489 30.0333 2.20489 30.0566 1.93684 30.6206C1.76391 30.9982 1.43102 31.3664 1.11109 31.5388C0.808459 31.702 0.812782 31.702 1.32293 31.6088C1.53477 31.5668 1.98872 31.4829 2.33459 31.4223C2.68045 31.3571 3.0047 31.2965 3.0609 31.2825L3.15602 31.2592V22.0114V12.7637L2.71504 12.5772C2.46861 12.47 2.1703 12.3442 2.04492 12.2929L1.82011 12.1997L1.9282 12.3675Z" fill="white"/>
<path d="M7.32782 15.5557C7.09003 15.635 6.73985 15.7468 6.5453 15.8074L6.19511 15.924L5.57255 17.3782L4.95 18.8325L4.93703 17.56C4.92838 16.3761 4.91973 16.2875 4.85056 16.3202C4.81165 16.3341 4.59116 16.4134 4.36635 16.488C4.14154 16.5672 3.86485 16.6604 3.74812 16.6977L3.54492 16.7723L3.55357 21.0885L3.56654 25.4094H4.23665H4.90676L4.91973 23.545L4.9327 21.6805L5.65902 23.545L6.38534 25.4094L7.21541 25.4234C7.66936 25.4281 8.04116 25.4234 8.04116 25.4094C8.04116 25.3955 7.96334 25.1904 7.87255 24.9526C7.78176 24.7149 7.31917 23.531 6.85225 22.3144L6.00488 20.1004L6.08703 19.8906C6.23834 19.5037 6.9906 17.6439 7.43158 16.5532C7.67368 15.9659 7.86823 15.4672 7.86823 15.4485C7.86823 15.3926 7.79473 15.4066 7.32782 15.5557Z" fill="white"/>
<path d="M34.46 14.66H38.54C39.26 14.66 40.9 14.7 41.94 15.68C42.8 16.5 42.9 17.62 42.9 18.2C42.9 18.72 42.82 19.32 42.46 19.9C42.12 20.46 41.66 20.74 41.34 20.88C41.98 20.98 42.7 21.3 43.18 21.78C43.62 22.22 44.04 22.98 44.04 24.16C44.04 25.5 43.52 26.34 43 26.86C41.9 27.92 40.3 28 39.48 28H34.46V14.66ZM37.5 17.06V20.08H38C38.42 20.08 39.12 20.02 39.56 19.7C39.84 19.5 40.1 19.1 40.1 18.52C40.1 17.94 39.82 17.58 39.58 17.4C39.14 17.06 38.54 17.06 37.98 17.06H37.5ZM37.5 22.36V25.6H38.24C39.02 25.6 39.96 25.58 40.52 25.06C40.8 24.8 40.96 24.42 40.96 23.94C40.96 23.4 40.74 23.04 40.54 22.86C40 22.36 38.96 22.36 38.34 22.36H37.5ZM46.195 19.08H49.075V28H46.195V19.08ZM45.955 15.28C45.955 14.34 46.695 13.6 47.635 13.6C48.575 13.6 49.315 14.34 49.315 15.28C49.315 16.22 48.575 16.96 47.635 16.96C46.695 16.96 45.955 16.22 45.955 15.28ZM51.5223 28V19.08H54.4023V20.12C55.1423 19 56.2223 18.86 56.9023 18.86C57.2823 18.86 57.9823 18.9 58.5823 19.26C59.0423 19.52 59.4223 19.96 59.6623 20.5C59.8823 20.14 60.2223 19.72 60.8023 19.36C61.4223 18.98 62.0023 18.86 62.7023 18.86C63.7823 18.86 64.6623 19.18 65.2023 19.7C66.0623 20.52 66.1223 21.72 66.1223 22.36V28H63.2423V23.48C63.2423 23.02 63.2423 22.22 62.8623 21.74C62.6223 21.44 62.2423 21.26 61.8223 21.26C61.3423 21.26 60.9423 21.48 60.7023 21.8C60.3223 22.28 60.2623 22.98 60.2623 23.56V28H57.3823V23.36C57.3823 22.76 57.3623 22.06 56.9223 21.62C56.6223 21.32 56.2623 21.26 55.9623 21.26C55.5823 21.26 55.2423 21.36 54.9623 21.62C54.4223 22.14 54.4023 23.14 54.4023 23.44V28H51.5223ZM68.4578 13.42H71.3378V22.36L74.5778 19.08H78.3578L74.1178 23.12L78.6578 28H74.7778L71.3378 24.16V28H68.4578V13.42ZM86.2711 20.12V19.08H89.1511V27.46C89.1511 28.72 89.0911 30.14 88.0511 31.26C86.9511 32.44 85.2711 32.58 84.2911 32.58C83.1111 32.58 81.6911 32.4 80.5711 31.44C80.0111 30.96 79.4311 30.2 79.2311 29.08H82.3711C82.4911 29.54 82.7711 29.8 83.0111 29.96C83.3511 30.18 83.8311 30.26 84.2511 30.26C85.0711 30.26 85.4911 29.96 85.6911 29.78C86.2511 29.24 86.2711 28.3 86.2711 27.92V26.9C85.9311 27.46 85.2511 28.24 83.6111 28.24C82.2311 28.24 81.1711 27.8 80.3511 26.98C79.6311 26.24 79.0511 25.16 79.0511 23.62C79.0511 22.1 79.6111 20.84 80.3711 20.06C80.9111 19.5 81.9511 18.78 83.6111 18.78C85.2311 18.78 85.9511 19.64 86.2711 20.12ZM84.2711 21.28C83.6311 21.28 83.0511 21.52 82.6911 21.86C82.2511 22.28 82.0111 22.98 82.0111 23.52C82.0111 24.1 82.2311 24.7 82.6311 25.12C83.0311 25.54 83.5711 25.76 84.2511 25.76C85.0111 25.76 85.5111 25.46 85.8111 25.18C86.2511 24.76 86.5111 24.14 86.5111 23.48C86.5111 22.78 86.2111 22.2 85.8311 21.84C85.4111 21.46 84.7911 21.28 84.2711 21.28Z" fill="white"/>
</svg>
