<svg width="154" height="42" viewBox="0 0 154 42" fill="none" xmlns="http://www.w3.org/2000/svg">
<mask id="path-1-inside-1_436_524" fill="white">
<path d="M0 0H154V42H0V0Z"/>
</mask>
<path d="M154 40.5H0V43.5H154V40.5Z" fill="white" mask="url(#path-1-inside-1_436_524)"/>
<path d="M8.34375 21V34L8.61612 33.9347C8.76311 33.8975 9.4289 33.7203 10.0947 33.5432C10.7605 33.3661 11.7159 33.1144 12.2131 32.9839C12.7146 32.858 13.2031 32.7275 13.3069 32.6995L13.4885 32.6436V32.4199C13.4885 32.2054 13.4971 32.1915 13.5879 32.2148C14.4137 32.4199 14.3704 32.4199 15.0968 32.2194C15.4124 32.1355 16.2597 31.9118 16.9817 31.7207L18.2874 31.3758V30.9889V30.5973L18.603 30.6253C18.7716 30.6393 19.2947 30.6766 19.7616 30.7046L20.609 30.7558L21.6639 30.4762C22.2432 30.3223 22.7836 30.1825 22.8614 30.1639L22.9998 30.1312V22.9344V15.7329L21.8498 15.1269C21.2142 14.796 20.6479 14.5256 20.583 14.5256C20.5225 14.5256 20.1896 14.5862 19.8437 14.6608C19.4979 14.7354 19.1477 14.8053 19.0656 14.824L18.9142 14.8519L18.6116 14.0642L18.309 13.2718L17.8334 13.0294C17.574 12.8942 16.8607 12.5213 16.2554 12.2044C15.6501 11.8874 14.9887 11.5425 14.7855 11.4399L14.418 11.2535L14.0073 11.4073C13.7825 11.4912 13.5706 11.5658 13.5447 11.5798C13.5015 11.5938 13.4885 11.4959 13.4885 11.1743V10.7454L11.3614 9.61276C10.1898 8.98817 9.03116 8.37289 8.78905 8.23772L8.34375 8V21Z" fill="white"/>
<path d="M1.9282 12.3675C2.17895 12.7637 2.17895 12.7963 2.19624 15.4765C2.20489 17.6113 2.20056 17.9702 2.14004 18.1893C1.93684 18.949 1.23647 19.8113 0.328571 20.4173C0.146993 20.5431 0 20.6504 0 20.6643C0 20.6737 0.129699 20.669 0.293985 20.655C0.453947 20.6364 0.773872 20.6457 1.00733 20.6737C1.69474 20.7576 1.98872 20.9766 2.13571 21.5127C2.19624 21.7364 2.20489 22.2352 2.20489 25.6984C2.20489 30.0333 2.20489 30.0566 1.93684 30.6206C1.76391 30.9982 1.43102 31.3664 1.11109 31.5388C0.808459 31.702 0.812782 31.702 1.32293 31.6088C1.53477 31.5668 1.98872 31.4829 2.33459 31.4223C2.68045 31.3571 3.0047 31.2965 3.0609 31.2825L3.15602 31.2592V22.0114V12.7637L2.71504 12.5772C2.46861 12.47 2.1703 12.3442 2.04492 12.2929L1.82011 12.1997L1.9282 12.3675Z" fill="white"/>
<path d="M7.32782 15.5557C7.09003 15.635 6.73985 15.7468 6.5453 15.8074L6.19511 15.924L5.57255 17.3782L4.95 18.8325L4.93703 17.56C4.92838 16.3761 4.91973 16.2875 4.85056 16.3202C4.81165 16.3341 4.59116 16.4134 4.36635 16.488C4.14154 16.5672 3.86485 16.6604 3.74812 16.6977L3.54492 16.7723L3.55357 21.0885L3.56654 25.4094H4.23665H4.90676L4.91973 23.545L4.9327 21.6805L5.65902 23.545L6.38534 25.4094L7.21541 25.4234C7.66936 25.4281 8.04116 25.4234 8.04116 25.4094C8.04116 25.3955 7.96334 25.1904 7.87255 24.9526C7.78176 24.7149 7.31917 23.531 6.85225 22.3144L6.00488 20.1004L6.08703 19.8906C6.23834 19.5037 6.9906 17.6439 7.43158 16.5532C7.67368 15.9659 7.86823 15.4672 7.86823 15.4485C7.86823 15.3926 7.79473 15.4066 7.32782 15.5557Z" fill="white"/>
<path d="M34.368 15.494H37.338C38.004 15.494 39.3 15.494 40.272 16.25C40.974 16.79 41.388 17.726 41.388 18.734C41.388 20.282 40.362 20.912 40.038 21.092C40.83 21.218 41.298 21.56 41.604 21.848C42.324 22.532 42.468 23.468 42.468 24.098C42.468 24.8 42.27 25.79 41.442 26.528C40.542 27.32 39.444 27.5 38.4 27.5H34.368V15.494ZM36.708 17.402V20.48H37.374C37.734 20.48 39.192 20.444 39.192 18.914C39.192 17.816 38.346 17.402 37.392 17.402H36.708ZM36.708 22.28V25.592H37.716C38.148 25.592 38.796 25.574 39.318 25.268C39.894 24.926 40.056 24.35 40.056 23.882C40.056 23.504 39.93 22.856 39.174 22.514C38.67 22.28 38.076 22.28 37.572 22.28H36.708ZM44.3096 19.706H46.5056V27.5H44.3096V19.706ZM44.0936 16.412C44.0936 15.692 44.6876 15.098 45.4076 15.098C46.1276 15.098 46.7216 15.692 46.7216 16.412C46.7216 17.132 46.1276 17.726 45.4076 17.726C44.6876 17.726 44.0936 17.132 44.0936 16.412ZM48.5987 27.5V19.706H50.7947V20.588C51.6227 19.544 52.6487 19.454 53.1167 19.454C54.7547 19.454 55.3847 20.48 55.5827 20.876C55.9607 20.264 56.7347 19.454 58.0847 19.454C59.2907 19.454 59.8847 20.012 60.1907 20.408C60.6947 21.074 60.7307 21.74 60.7307 22.604V27.5H58.5347V23.252C58.5347 22.334 58.3367 21.92 58.1747 21.722C57.8867 21.362 57.4907 21.326 57.2747 21.326C56.6807 21.326 56.3027 21.596 56.0687 22.01C55.7807 22.478 55.7627 23.108 55.7627 23.522V27.5H53.5667V23.252C53.5667 22.334 53.3687 21.92 53.2067 21.722C52.9187 21.362 52.5227 21.326 52.3067 21.326C51.7127 21.326 51.3347 21.596 51.1007 22.01C50.8127 22.478 50.7947 23.108 50.7947 23.522V27.5H48.5987ZM62.8194 14.378H65.0154V22.55L67.9314 19.706H70.7754L67.1214 23.126L71.0634 27.5H68.1474L65.2494 24.17L65.0154 24.386V27.5H62.8194V14.378ZM77.777 20.714V19.706H79.973V27.14C79.973 28.328 79.865 29.57 78.893 30.542C78.353 31.082 77.417 31.64 75.815 31.64C74.303 31.64 73.403 31.19 72.899 30.74C72.287 30.218 71.819 29.3 71.639 28.418H74.015C74.105 28.778 74.303 29.138 74.555 29.354C74.987 29.75 75.581 29.768 75.887 29.768C76.517 29.768 76.931 29.552 77.219 29.282C77.723 28.796 77.777 28.184 77.777 27.554V26.456C77.021 27.608 75.977 27.752 75.383 27.752C74.339 27.752 73.439 27.428 72.683 26.69C72.107 26.114 71.441 25.106 71.441 23.594C71.441 22.37 71.891 21.236 72.647 20.498C73.331 19.832 74.285 19.454 75.329 19.454C76.787 19.454 77.471 20.246 77.777 20.714ZM75.869 21.398C75.167 21.398 74.681 21.686 74.411 21.938C74.051 22.262 73.709 22.784 73.709 23.594C73.709 24.278 73.961 24.782 74.285 25.124C74.753 25.628 75.347 25.808 75.869 25.808C76.409 25.808 76.949 25.61 77.327 25.268C77.777 24.854 78.029 24.224 78.029 23.594C78.029 22.856 77.705 22.352 77.399 22.028C76.967 21.578 76.463 21.398 75.869 21.398Z" fill="white"/>
</svg>
