<svg width="123" height="42" viewBox="0 0 123 42" fill="none" xmlns="http://www.w3.org/2000/svg">
<mask id="path-1-inside-1_199_455" fill="white">
<path d="M0 0H123V42H0V0Z"/>
</mask>
<path d="M123 40.5H0V43.5H123V40.5Z" fill="white" mask="url(#path-1-inside-1_199_455)"/>
<path d="M10.102 8.01756C7.99474 8.20231 5.99771 8.94059 4.36106 10.1623C1.85295 12.0306 0.307808 14.7553 0.0345274 17.8453C-0.102113 19.3948 0.172617 21.1902 0.755616 22.6234C1.45096 24.3368 2.4837 25.7299 3.88958 26.9129C5.5991 28.3521 7.83077 29.2559 10.102 29.4377C10.8004 29.4913 11.9418 29.4516 12.5704 29.3563C13.791 29.1745 14.7681 28.8702 15.843 28.3518C18.9918 26.8351 21.2324 23.9359 21.8336 20.533C22.0401 19.3709 22.0214 18.0387 21.8059 16.8408C21.5265 15.2764 20.8426 13.727 19.8922 12.4428C19.4823 11.8915 19.1508 11.5134 18.6164 11.0039C16.8644 9.33523 14.6811 8.33971 12.1821 8.04471C11.8208 8.00002 10.4786 7.98479 10.102 8.01756ZM12.4872 10.0808C12.5418 10.1017 12.6358 10.16 12.6813 10.2166C12.7603 10.306 12.7489 10.3182 12.7368 10.4881C12.7216 10.7294 12.6491 10.8182 12.3485 10.9225C12.0722 11.0178 7.99298 12.259 7.07901 12.5242C6.51119 12.6911 6.05284 12.8808 6.05284 12.9314C6.05284 12.9672 6.12129 12.9887 6.57979 13.2301C6.82271 13.3582 7.08023 13.5112 7.16221 13.5559C7.24723 13.6005 7.542 13.7446 7.8001 13.8816C8.0582 14.0157 8.52565 14.2365 8.82626 14.3975C10.0378 15.0411 10.0889 15.0791 10.6567 15.0762C11.2336 15.0732 11.6704 14.9841 12.9032 14.6146C13.3283 14.4865 14.0628 14.269 14.5395 14.126C15.9757 13.6939 16.907 13.4224 17.1742 13.3658C17.5417 13.2883 18.0826 13.3095 18.45 13.393C18.9966 13.5181 19.4817 13.8101 19.6426 14.126C19.7398 14.3167 19.7276 14.5656 19.6426 14.7504C19.5181 15.0156 19.1267 15.2265 18.4223 15.4291C18.1976 15.4946 17.3657 15.7579 16.5641 15.9992C15.7625 16.2406 14.7207 16.5438 14.2622 16.6779C12.7804 17.1189 12.4515 17.2639 12.1266 17.5738C11.9171 17.7675 11.8086 17.9817 11.7661 18.2797C11.7479 18.3989 11.7383 20.0251 11.7383 22.3791C11.7383 24.8821 11.7288 26.3262 11.7106 26.4514C11.6469 26.8447 11.4132 27.1741 11.1005 27.3201C10.9578 27.3857 10.8875 27.4016 10.6567 27.4016C10.4108 27.4016 10.3614 27.3794 10.1852 27.293C9.90892 27.1589 9.63156 26.8612 9.49188 26.5871C9.30058 26.2027 9.27304 26.1723 9.27001 23.8451C9.26394 20.3201 9.23843 18.0453 9.18681 17.8725C9.08357 17.5387 8.85297 17.2004 8.57665 17.0037C8.48252 16.9382 8.22541 16.8123 8.02197 16.7051C7.81853 16.5978 7.42598 16.3713 7.13448 16.2164C6.84298 16.0585 6.19331 15.7244 5.6923 15.4562C5.19128 15.191 4.55762 14.8573 4.30559 14.7232C3.78939 14.4402 3.50231 14.2885 3.36263 14.2617C3.18044 14.2319 3.18671 14.0203 3.16849 18.6598C3.15331 22.8642 3.14905 22.8959 3.08529 22.9764C2.97597 23.1224 2.88264 23.1664 2.72474 23.1664C2.53648 23.1664 2.38464 23.08 2.30873 22.9221C2.248 22.7999 2.27189 22.7679 2.281 18.5783C2.28707 14.7344 2.29092 14.3326 2.33646 14.2074C2.52472 13.683 2.79926 13.4138 3.25169 13.393C3.67983 13.3721 3.87062 13.437 5.49816 14.316C5.91719 14.5425 6.51968 14.8821 6.8294 15.049C7.98629 15.6658 8.81696 16.1154 9.0204 16.2435C9.54267 16.5743 9.86782 17.009 10.0743 17.6824L10.1575 17.9268V21.8904C10.1666 24.0686 10.2008 25.8938 10.213 25.9355C10.2251 25.9773 10.2533 26.0359 10.2684 26.0984C10.317 26.2802 10.5387 26.5328 10.6845 26.5328C10.8089 26.5328 10.8079 26.5819 10.8231 22.2434L10.8509 18.0896L10.9063 17.8725C11.1462 17.1782 11.5955 16.7279 12.3485 16.3793C12.6491 16.2392 12.7474 16.2138 14.2899 15.7549C14.8486 15.588 15.6108 15.3705 15.9539 15.2662C16.2971 15.1619 16.9467 14.9629 17.3961 14.8318C18.304 14.5637 18.6442 14.4302 18.6442 14.3975C18.6442 14.3587 18.3905 14.2793 18.1172 14.2346C17.8895 14.1958 17.7903 14.2048 17.5625 14.2346C17.1314 14.2882 17.0672 14.3047 14.4286 15.1033C12.8101 15.592 12.6641 15.6178 12.1266 15.7549C10.827 16.0826 10.0769 16.0452 9.21454 15.6191C8.94733 15.485 8.12902 15.0583 7.24541 14.5875C6.95391 14.4296 6.54881 14.215 6.33019 14.0988C6.1146 13.9856 5.85101 13.8538 5.74777 13.8002C5.32266 13.5737 5.08215 13.2741 5.08215 12.9314C5.08215 12.4308 5.5644 12.0322 6.49659 11.7641C7.13728 11.5793 10.8837 10.4467 11.4333 10.2709C11.8887 10.1249 12.2301 10.0325 12.3485 10.0266C12.3698 10.0236 12.4325 10.057 12.4872 10.0808Z" fill="white"/>
<path d="M20.7797 30.0622C20.8347 30.3628 20.964 30.5058 21.2512 30.5237C21.41 30.5326 21.4677 30.5289 21.5562 30.4694C21.7059 30.3711 21.7567 30.253 21.7781 30.0893L21.8059 29.9536H21.6117C21.4681 29.9536 21.4176 29.9721 21.4176 30.0079C21.4176 30.1002 21.3461 30.1979 21.2789 30.1979C21.1995 30.1979 21.1677 30.1511 21.1402 30.035C21.1219 29.9576 21.1233 29.9536 20.9461 29.9536H20.752L20.7797 30.0622Z" fill="white"/>
<path d="M3.88942 30.7679C3.61599 30.836 3.47262 30.9779 3.41794 31.2295C3.39667 31.3271 3.38413 31.6895 3.39021 32.234C3.39932 33.0389 3.41265 33.0989 3.47341 33.2113C3.5524 33.3563 3.61404 33.4266 3.75075 33.4828C4.01202 33.5864 4.37922 33.5617 4.58277 33.4285C4.63746 33.39 4.70665 33.2823 4.74918 33.2113L4.83238 33.0756V32.1525C4.83238 31.2411 4.83768 31.182 4.77691 31.0666C4.74046 31.0015 4.67166 30.9303 4.63824 30.9037C4.49242 30.7764 4.12335 30.7117 3.88942 30.7679ZM4.30543 31.2838C4.36619 31.3577 4.3609 31.4127 4.3609 32.1525C4.3609 32.8923 4.36619 32.9201 4.30543 32.9941C4.25682 33.0533 4.20244 33.0756 4.11129 33.0756C4.02015 33.0756 3.9935 33.0533 3.94489 32.9941C3.88413 32.9201 3.86169 32.8923 3.86169 32.1525C3.86169 31.4127 3.88413 31.3577 3.94489 31.2838C3.9935 31.2246 4.02015 31.2023 4.11129 31.2023C4.20244 31.2023 4.25682 31.2246 4.30543 31.2838Z" fill="white"/>
<path d="M14.4288 30.768C14.2606 30.8191 14.0855 30.9795 14.0405 31.1481C13.9954 31.3046 13.9984 32.9433 14.0405 33.1028C14.0615 33.172 14.1318 33.2749 14.2069 33.3471C14.4562 33.5969 14.9006 33.5969 15.1498 33.3471C15.294 33.2057 15.344 33.078 15.344 32.8041V32.6141H15.0944H14.8725V32.777C14.8725 32.9756 14.8105 33.0756 14.6784 33.0756C14.5102 33.0756 14.4842 33.0463 14.4842 32.1254C14.4842 31.349 14.4886 31.2747 14.5397 31.2295C14.5697 31.1994 14.6363 31.1752 14.6784 31.1752C14.7985 31.1752 14.8725 31.2813 14.8725 31.4739V31.6367H15.0944H15.344V31.4467C15.344 31.1909 15.3037 31.0452 15.1776 30.9037C15.0064 30.7141 14.7141 30.6777 14.4288 30.768Z" fill="white"/>
<path d="M19.2543 30.768C19.1087 30.8007 18.9418 30.9358 18.866 31.0666C18.8205 31.1528 18.8105 31.2514 18.8105 32.1254C18.8105 33.2075 18.8076 33.2107 19.0047 33.3742C19.3049 33.621 19.9169 33.5841 20.1141 33.2928C20.2323 33.1144 20.2649 32.9087 20.2527 32.0168C20.2436 31.2557 20.2302 31.1766 20.1695 31.0666C20.0907 30.9209 20.0408 30.8546 19.8922 30.7951C19.7497 30.7357 19.415 30.7293 19.2543 30.768ZM19.698 31.2566C19.7526 31.3161 19.7535 31.3703 19.7535 32.1254C19.7535 32.8805 19.7526 32.9618 19.698 33.0213C19.6586 33.0629 19.6044 33.0756 19.5316 33.0756C19.2951 33.0756 19.282 33.0288 19.282 32.0982C19.282 31.3461 19.2799 31.3131 19.3375 31.2566C19.4224 31.1734 19.6192 31.1734 19.698 31.2566Z" fill="white"/>
<path d="M0.00683594 32.1254V33.51H0.228709H0.450583V32.3426V31.1752H0.644722H0.866595V32.3426V33.51H1.08847H1.33808V32.1254V30.7409H0.672456H0.00683594V32.1254Z" fill="white"/>
<path d="M1.72656 32.1254V33.51H1.94844H2.17031V32.967V32.4512L2.44765 32.4241C2.77079 32.4033 2.93645 32.3186 3.03007 32.1254C3.08443 32.0125 3.08554 31.939 3.08554 31.5825C3.08554 31.0803 3.03167 30.9802 2.8082 30.8495C2.6723 30.7722 2.65104 30.7528 2.19804 30.7409H1.72656V32.1254ZM2.55859 31.2567C2.60691 31.3102 2.61406 31.3749 2.61406 31.6096C2.61406 31.8711 2.62503 31.8819 2.55859 31.9354C2.51027 31.974 2.43637 31.9897 2.33671 31.9897H2.17031V31.5825V31.2024H2.33671C2.46355 31.2024 2.51329 31.2091 2.55859 31.2567Z" fill="white"/>
<path d="M5.1377 32.1254V33.51H5.35957H5.55371L5.58144 32.6956V31.854L5.77558 32.4241L5.94199 32.9942H6.08066C6.20251 32.9942 6.18582 33.0107 6.21933 32.8856C6.23761 32.8171 6.32817 32.5232 6.41347 32.2612L6.57987 31.7997V32.6413V33.51H6.77401H6.99588V32.1254V30.7409H6.77401H6.55214L6.41347 31.1209C6.3434 31.3383 6.25252 31.6876 6.19159 31.8811C6.12762 32.0746 6.06206 32.24 6.05292 32.234C6.04683 32.2251 5.98431 32.0077 5.91425 31.7725C5.84114 31.5403 5.74416 31.2092 5.69238 31.0395L5.58144 30.7409H5.35957H5.1377V32.1254Z" fill="white"/>
<path d="M7.38379 32.1254V33.51H7.60566H7.82754V32.3426V31.1752H8.13261H8.40995V30.9581V30.7409H7.91074H7.38379V32.1254Z" fill="white"/>
<path d="M8.66016 32.1254V33.51H8.90976H9.13164V32.967V32.4512H9.32578C9.5579 32.4512 9.78399 32.3624 9.88046 32.2612C10.0221 32.1153 10.0469 31.9937 10.0469 31.6096C10.0469 31.1987 10.0041 31.0709 9.88046 30.9309C9.7448 30.779 9.5796 30.7409 9.07617 30.7409H8.66016V32.1254ZM9.49218 31.2567C9.54343 31.3073 9.57538 31.3383 9.57538 31.5825C9.57538 31.9308 9.53318 31.9897 9.29804 31.9897H9.13164V31.5825V31.1752H9.29804C9.40958 31.1752 9.44696 31.212 9.49218 31.2567Z" fill="white"/>
<path d="M10.7672 30.7951C10.7581 30.8248 10.6573 31.2333 10.5453 31.691C10.4364 32.1487 10.276 32.7296 10.2125 32.9941C10.1459 33.2616 10.1016 33.504 10.1016 33.5099C10.1016 33.5159 10.1994 33.5099 10.3234 33.5099H10.5453L10.573 33.4013C10.5882 33.3419 10.6164 33.2466 10.6285 33.1841L10.6562 33.0756H10.9336H11.2109L11.2664 33.2656L11.2941 33.4828L11.5437 33.5099C11.7616 33.5188 11.7807 33.5032 11.7656 33.4556C11.7505 33.3992 11.3985 31.9809 11.2109 31.2023L11.1 30.7408H10.9336C10.8095 30.7408 10.7793 30.7565 10.7672 30.7951ZM11.0445 32.2068L11.1277 32.6412H10.9336C10.8368 32.6471 10.7455 32.6471 10.7394 32.6412C10.7334 32.6352 10.7712 32.4234 10.8227 32.1797C10.8711 31.9389 10.9306 31.727 10.9336 31.7181C10.9396 31.6736 10.9659 31.8115 11.0445 32.2068Z" fill="white"/>
<path d="M12.2371 31.7182C12.2371 32.3247 12.2307 32.7629 12.2094 32.8313C12.1697 32.974 12.0882 33.0485 11.9875 33.0485H11.9043V33.51C11.9043 33.9946 11.8996 33.9987 12.043 33.9987C12.0674 33.9987 12.1609 34.0017 12.2371 33.9987L12.3481 33.9715V33.7543V33.51H12.8195H13.2633V33.7543V33.9715L13.402 33.9987C13.4721 34.0017 13.5811 33.9957 13.6238 33.9987H13.6793L13.707 33.5372V33.0485H13.5961H13.4852V31.9082V30.7409H12.875H12.2371V31.7182ZM13.0137 32.1254V33.0485H12.7918C12.6759 33.0485 12.5699 33.0574 12.5699 33.0485C12.5699 33.0425 12.601 32.9536 12.6254 32.8584C12.659 32.7306 12.6531 32.5062 12.6531 31.9354V31.1752H12.8473H13.0137V32.1254Z" fill="white"/>
<path d="M15.4551 30.9581V31.1752H15.677H15.8988V32.3426V33.51H16.1484H16.398V32.3426V31.1752H16.6199H16.8418V30.9581V30.7409H16.1484H15.4551V30.9581Z" fill="white"/>
<path d="M17.0908 32.1254V33.51H17.3404H17.59V32.967V32.4512H17.7564C18.0998 32.4512 18.3465 32.3216 18.4498 32.0983C18.5318 31.9226 18.5318 31.2695 18.4498 31.0938C18.3252 30.8228 18.102 30.7409 17.4791 30.7409H17.0908V32.1254ZM17.9506 31.2567C18.0022 31.3073 18.006 31.3383 18.006 31.5825C18.006 31.9308 17.9657 31.9897 17.7287 31.9897H17.59V31.5825V31.1752H17.7287C17.8411 31.1752 17.905 31.212 17.9506 31.2567Z" fill="white"/>
<path d="M20.5576 32.1254V33.51H20.7518L20.9459 33.4829L21.251 32.6684L21.5283 31.8268V32.6684V33.51H21.7502L21.9721 33.4829L21.9998 32.1254V30.7409H21.8057H21.6115L21.3896 31.3381C21.2761 31.6623 21.1367 32.031 21.0846 32.1797L21.0014 32.4512L20.9736 31.5825V30.7409H20.7795H20.5576V32.1254Z" fill="white"/>
<path d="M33.46 14.66H38.16C39.32 14.66 40.6 14.82 41.66 15.76C42.8 16.76 42.96 18.08 42.96 19C42.96 20.68 42.32 21.62 41.82 22.14C40.76 23.22 39.36 23.32 38.42 23.32H36.54V28H33.46V14.66ZM36.54 17.18V20.8H37.64C38.06 20.8 38.8 20.78 39.3 20.3C39.58 20.02 39.8 19.56 39.8 18.98C39.8 18.42 39.6 17.96 39.3 17.68C38.84 17.24 38.18 17.18 37.58 17.18H36.54ZM44.5653 28V19.08H47.4453V20.48C47.7053 19.98 48.1053 19.52 48.5653 19.24C49.0453 18.94 49.5453 18.86 50.1053 18.86C50.4653 18.86 50.7253 18.9 51.0453 19L50.8853 21.7C50.5053 21.5 50.0853 21.38 49.5853 21.38C48.9653 21.38 48.5053 21.6 48.1453 21.98C47.5053 22.66 47.4453 23.62 47.4453 24.38V28H44.5653ZM61.9881 23.54C61.9881 24.68 61.5481 25.96 60.6481 26.86C59.8481 27.66 58.4881 28.3 56.7481 28.3C55.0081 28.3 53.6481 27.66 52.8481 26.86C51.9481 25.96 51.5081 24.68 51.5081 23.54C51.5081 22.4 51.9481 21.12 52.8481 20.22C53.6481 19.42 55.0081 18.78 56.7481 18.78C58.4881 18.78 59.8481 19.42 60.6481 20.22C61.5481 21.12 61.9881 22.4 61.9881 23.54ZM56.7481 21.22C56.0881 21.22 55.5481 21.44 55.1281 21.86C54.7081 22.28 54.4681 22.82 54.4681 23.54C54.4681 24.36 54.7881 24.88 55.1281 25.22C55.4881 25.58 56.0081 25.86 56.7681 25.86C57.4081 25.86 57.9481 25.64 58.3681 25.22C58.7881 24.8 59.0281 24.26 59.0281 23.54C59.0281 22.82 58.7881 22.28 58.3681 21.86C57.9481 21.44 57.4081 21.22 56.7481 21.22ZM63.7841 28V19.08H66.6641V20.12C67.4041 19 68.4841 18.86 69.1641 18.86C69.5441 18.86 70.2441 18.9 70.8441 19.26C71.3041 19.52 71.6841 19.96 71.9241 20.5C72.1441 20.14 72.4841 19.72 73.0641 19.36C73.6841 18.98 74.2641 18.86 74.9641 18.86C76.0441 18.86 76.9241 19.18 77.4641 19.7C78.3241 20.52 78.3841 21.72 78.3841 22.36V28H75.5041V23.48C75.5041 23.02 75.5041 22.22 75.1241 21.74C74.8841 21.44 74.5041 21.26 74.0841 21.26C73.6041 21.26 73.2041 21.48 72.9641 21.8C72.5841 22.28 72.5241 22.98 72.5241 23.56V28H69.6441V23.36C69.6441 22.76 69.6241 22.06 69.1841 21.62C68.8841 21.32 68.5241 21.26 68.2241 21.26C67.8441 21.26 67.5041 21.36 67.2241 21.62C66.6841 22.14 66.6641 23.14 66.6641 23.44V28H63.7841ZM87.4195 20.12V19.08H90.2995V27.46C90.2995 28.72 90.2395 30.14 89.1995 31.26C88.0995 32.44 86.4195 32.58 85.4395 32.58C84.2595 32.58 82.8395 32.4 81.7195 31.44C81.1595 30.96 80.5795 30.2 80.3795 29.08H83.5195C83.6395 29.54 83.9195 29.8 84.1595 29.96C84.4995 30.18 84.9795 30.26 85.3995 30.26C86.2195 30.26 86.6395 29.96 86.8395 29.78C87.3995 29.24 87.4195 28.3 87.4195 27.92V26.9C87.0795 27.46 86.3995 28.24 84.7595 28.24C83.3795 28.24 82.3195 27.8 81.4995 26.98C80.7795 26.24 80.1995 25.16 80.1995 23.62C80.1995 22.1 80.7595 20.84 81.5195 20.06C82.0595 19.5 83.0995 18.78 84.7595 18.78C86.3795 18.78 87.0995 19.64 87.4195 20.12ZM85.4195 21.28C84.7795 21.28 84.1995 21.52 83.8395 21.86C83.3995 22.28 83.1595 22.98 83.1595 23.52C83.1595 24.1 83.3795 24.7 83.7795 25.12C84.1795 25.54 84.7195 25.76 85.3995 25.76C86.1595 25.76 86.6595 25.46 86.9595 25.18C87.3995 24.76 87.6595 24.14 87.6595 23.48C87.6595 22.78 87.3595 22.2 86.9795 21.84C86.5595 21.46 85.9395 21.28 85.4195 21.28ZM92.5341 28V19.08H95.4141V20.48C95.6741 19.98 96.0741 19.52 96.5341 19.24C97.0141 18.94 97.5141 18.86 98.0741 18.86C98.4341 18.86 98.6941 18.9 99.0141 19L98.8541 21.7C98.4741 21.5 98.0541 21.38 97.5541 21.38C96.9341 21.38 96.4741 21.6 96.1141 21.98C95.4741 22.66 95.4141 23.62 95.4141 24.38V28H92.5341ZM106.757 20.08V19.08H109.637V28H106.757V26.92C105.977 28.12 104.857 28.3 104.117 28.3C102.837 28.3 101.757 27.98 100.777 26.94C99.8369 25.94 99.4769 24.78 99.4769 23.6C99.4769 22.1 100.037 20.82 100.857 20C101.637 19.22 102.717 18.78 103.957 18.78C104.717 18.78 105.937 18.96 106.757 20.08ZM104.677 21.26C104.057 21.26 103.477 21.52 103.097 21.9C102.797 22.2 102.437 22.72 102.437 23.52C102.437 24.32 102.777 24.84 103.037 25.12C103.437 25.54 104.057 25.82 104.737 25.82C105.317 25.82 105.857 25.58 106.237 25.2C106.617 24.84 106.937 24.28 106.937 23.52C106.937 22.88 106.697 22.28 106.277 21.88C105.837 21.46 105.197 21.26 104.677 21.26ZM121.59 13.42V28H118.71V26.92C118.27 27.56 117.47 28.3 115.89 28.3C114.57 28.3 113.61 27.88 112.83 27.08C111.91 26.16 111.43 24.88 111.43 23.5C111.43 22.02 111.97 20.8 112.83 19.98C113.61 19.24 114.71 18.78 115.93 18.78C116.91 18.78 117.99 19.1 118.71 20.08V13.42H121.59ZM116.63 21.26C116.05 21.26 115.55 21.42 115.09 21.86C114.67 22.26 114.39 22.84 114.39 23.56C114.39 24.22 114.67 24.8 115.09 25.2C115.53 25.62 116.09 25.82 116.59 25.82C117.13 25.82 117.77 25.6 118.23 25.16C118.57 24.84 118.89 24.3 118.89 23.56C118.89 22.8 118.59 22.28 118.25 21.92C117.79 21.44 117.25 21.26 116.63 21.26Z" fill="white"/>
</svg>
