<svg width="22" height="26" viewBox="0 0 22 26" fill="none" xmlns="http://www.w3.org/2000/svg">
<path d="M10.102 0.017626C7.99474 0.202371 5.99771 0.940655 4.36106 2.16235C1.85295 4.03066 0.307808 6.75536 0.0345274 9.84537C-0.102113 11.3948 0.172617 13.1902 0.755616 14.6235C1.45096 16.3369 2.4837 17.73 3.88958 18.913C5.5991 20.3522 7.83077 21.256 10.102 21.4378C10.8004 21.4914 11.9418 21.4517 12.5704 21.3563C13.791 21.1746 14.7681 20.8703 15.843 20.3518C18.9918 18.8351 21.2324 15.9359 21.8336 12.5331C22.0401 11.371 22.0214 10.0387 21.8059 8.84088C21.5265 7.2765 20.8426 5.7271 19.8922 4.44283C19.4823 3.89157 19.1508 3.51349 18.6164 3.00396C16.8644 1.33529 14.6811 0.33977 12.1821 0.0447745C11.8208 7.81748e-05 10.4786 -0.0151513 10.102 0.017626ZM12.4872 2.08091C12.5418 2.10177 12.6358 2.16004 12.6813 2.21665C12.7603 2.30604 12.7489 2.31829 12.7368 2.48814C12.7216 2.7295 12.6491 2.81822 12.3485 2.92251C12.0722 3.01786 7.99298 4.25907 7.07901 4.52427C6.51119 4.69114 6.05284 4.88084 6.05284 4.9315C6.05284 4.96725 6.12129 4.98877 6.57979 5.23013C6.82271 5.35826 7.08023 5.51122 7.16221 5.55591C7.24723 5.60061 7.542 5.74462 7.8001 5.88169C8.0582 6.01578 8.52565 6.23661 8.82626 6.39751C10.0378 7.04114 10.0889 7.07921 10.6567 7.07623C11.2336 7.07325 11.6704 6.98419 12.9032 6.6147C13.3283 6.48657 14.0628 6.26906 14.5395 6.12603C15.9757 5.69397 16.907 5.42249 17.1742 5.36587C17.5417 5.2884 18.0826 5.30959 18.45 5.39302C18.9966 5.51817 19.4817 5.81018 19.6426 6.12603C19.7398 6.31673 19.7276 6.5657 19.6426 6.75044C19.5181 7.01564 19.1267 7.22653 18.4223 7.42916C18.1976 7.49471 17.3657 7.75791 16.5641 7.99927C15.7625 8.24063 14.7207 8.5439 14.2622 8.67798C12.7804 9.11899 12.4515 9.26399 12.1266 9.57388C11.9171 9.76757 11.8086 9.98177 11.7661 10.2797C11.7479 10.3989 11.7383 12.0252 11.7383 14.3792C11.7383 16.8822 11.7288 18.3263 11.7106 18.4514C11.6469 18.8448 11.4132 19.1742 11.1005 19.3202C10.9578 19.3857 10.8875 19.4016 10.6567 19.4016C10.4108 19.4016 10.3614 19.3794 10.1852 19.293C9.90892 19.1589 9.63156 18.8613 9.49188 18.5872C9.30059 18.2028 9.27304 18.1724 9.27001 15.8452C9.26394 12.3201 9.23843 10.0453 9.18681 9.87252C9.08357 9.53878 8.85297 9.20043 8.57665 9.00377C8.48252 8.93821 8.22541 8.8124 8.02197 8.70513C7.81853 8.59786 7.42598 8.37141 7.13448 8.21646C6.84298 8.05853 6.19331 7.72448 5.6923 7.4563C5.19128 7.19111 4.55762 6.85738 4.30559 6.7233C3.78939 6.44022 3.50231 6.28859 3.36263 6.26177C3.18044 6.23197 3.18671 6.02034 3.16849 10.6598C3.15331 14.8643 3.14905 14.896 3.08529 14.9764C2.97597 15.1224 2.88264 15.1665 2.72474 15.1665C2.53648 15.1665 2.38464 15.0801 2.30873 14.9221C2.248 14.8 2.27189 14.7679 2.281 10.5784C2.28707 6.73449 2.29092 6.33262 2.33646 6.20748C2.52472 5.68304 2.79926 5.41388 3.25169 5.39302C3.67983 5.37216 3.87062 5.43704 5.49816 6.31607C5.91719 6.54253 6.51968 6.88221 6.8294 7.04908C7.98629 7.66589 8.81696 8.11548 9.0204 8.24361C9.54267 8.57436 9.86782 9.00905 10.0743 9.68248L10.1575 9.92681V13.8905C10.1666 16.0687 10.2008 17.8939 10.213 17.9356C10.2251 17.9773 10.2533 18.0359 10.2684 18.0985C10.317 18.2803 10.5387 18.5329 10.6845 18.5329C10.8089 18.5329 10.8079 18.5819 10.8231 14.2434L10.8509 10.0897L10.9063 9.87252C11.1462 9.17823 11.5955 8.72798 12.3485 8.37935C12.6491 8.2393 12.7474 8.21382 14.2899 7.75494C14.8486 7.58807 15.6108 7.37056 15.9539 7.26627C16.2971 7.16197 16.9467 6.963 17.3961 6.83189C18.304 6.56371 18.6442 6.43029 18.6442 6.39751C18.6442 6.35878 18.3905 6.27932 18.1172 6.23462C17.8895 6.19589 17.7903 6.20483 17.5625 6.23462C17.1314 6.28826 17.0672 6.3048 14.4286 7.10337C12.8101 7.59205 12.6641 7.61787 12.1266 7.75494C10.827 8.08271 10.0769 8.0453 9.21454 7.61919C8.94733 7.48511 8.12902 7.05835 7.24541 6.58755C6.95391 6.42963 6.54881 6.21509 6.33019 6.09888C6.1146 5.98565 5.85101 5.85388 5.74777 5.80025C5.32266 5.57379 5.08215 5.27417 5.08215 4.9315C5.08215 4.4309 5.5644 4.03229 6.49659 3.76411C7.13728 3.57937 10.8837 2.44675 11.4333 2.27095C11.8887 2.12494 12.2301 2.03257 12.3485 2.02661C12.3698 2.02363 12.4325 2.05707 12.4872 2.08091Z" fill="white"/>
<path d="M20.7797 22.0622C20.8347 22.3628 20.964 22.5058 21.2512 22.5237C21.41 22.5326 21.4677 22.5289 21.5562 22.4694C21.7059 22.3711 21.7567 22.253 21.7781 22.0893L21.8059 21.9536H21.6117C21.4681 21.9536 21.4176 21.9721 21.4176 22.0079C21.4176 22.1002 21.3461 22.1979 21.2789 22.1979C21.1995 22.1979 21.1677 22.1511 21.1402 22.035C21.1219 21.9576 21.1233 21.9536 20.9461 21.9536H20.752L20.7797 22.0622Z" fill="white"/>
<path d="M3.88942 22.768C3.61599 22.8361 3.47262 22.978 3.41794 23.2295C3.39667 23.3272 3.38413 23.6895 3.39021 24.234C3.39932 25.0389 3.41265 25.0989 3.47341 25.2114C3.5524 25.3564 3.61404 25.4266 3.75075 25.4828C4.01202 25.5864 4.37922 25.5617 4.58277 25.4286C4.63746 25.3901 4.70665 25.2824 4.74918 25.2114L4.83238 25.0756V24.1526C4.83238 23.2412 4.83768 23.182 4.77691 23.0666C4.74046 23.0015 4.67166 22.9304 4.63824 22.9037C4.49242 22.7765 4.12335 22.7118 3.88942 22.768ZM4.30543 23.2838C4.36619 23.3578 4.3609 23.4128 4.3609 24.1526C4.3609 24.8924 4.36619 24.9202 4.30543 24.9942C4.25682 25.0534 4.20244 25.0756 4.11129 25.0756C4.02015 25.0756 3.9935 25.0534 3.94489 24.9942C3.88413 24.9202 3.86169 24.8924 3.86169 24.1526C3.86169 23.4128 3.88413 23.3578 3.94489 23.2838C3.9935 23.2246 4.02015 23.2024 4.11129 23.2024C4.20244 23.2024 4.25682 23.2246 4.30543 23.2838Z" fill="white"/>
<path d="M14.4288 22.768C14.2606 22.8191 14.0855 22.9795 14.0405 23.1481C13.9954 23.3046 13.9984 24.9433 14.0405 25.1028C14.0615 25.172 14.1318 25.2749 14.2069 25.3471C14.4562 25.5969 14.9006 25.5969 15.1498 25.3471C15.294 25.2057 15.344 25.078 15.344 24.8041V24.6141H15.0944H14.8725V24.777C14.8725 24.9756 14.8105 25.0756 14.6784 25.0756C14.5102 25.0756 14.4842 25.0463 14.4842 24.1254C14.4842 23.349 14.4886 23.2747 14.5397 23.2295C14.5697 23.1994 14.6363 23.1752 14.6784 23.1752C14.7985 23.1752 14.8725 23.2813 14.8725 23.4739V23.6367H15.0944H15.344V23.4467C15.344 23.1909 15.3037 23.0452 15.1776 22.9037C15.0064 22.7141 14.7141 22.6777 14.4288 22.768Z" fill="white"/>
<path d="M19.2543 22.768C19.1087 22.8007 18.9418 22.9359 18.866 23.0667C18.8205 23.1529 18.8105 23.2514 18.8105 24.1255C18.8105 25.2076 18.8076 25.2108 19.0047 25.3743C19.3049 25.621 19.9169 25.5842 20.1141 25.2928C20.2323 25.1145 20.2649 24.9087 20.2527 24.0169C20.2436 23.2558 20.2302 23.1767 20.1695 23.0667C20.0907 22.921 20.0408 22.8546 19.8922 22.7952C19.7497 22.7357 19.415 22.7294 19.2543 22.768ZM19.698 23.2567C19.7526 23.3162 19.7535 23.3703 19.7535 24.1255C19.7535 24.8806 19.7526 24.9619 19.698 25.0214C19.6586 25.063 19.6044 25.0757 19.5316 25.0757C19.2951 25.0757 19.282 25.0288 19.282 24.0983C19.282 23.3462 19.2799 23.3132 19.3375 23.2567C19.4224 23.1735 19.6192 23.1735 19.698 23.2567Z" fill="white"/>
<path d="M0.00634766 24.1254V25.51H0.228221H0.450094V24.3426V23.1752H0.644234H0.866107V24.3426V25.51H1.08798H1.33759V24.1254V22.7409H0.671968H0.00634766V24.1254Z" fill="white"/>
<path d="M1.72607 24.1254V25.51H1.94795H2.16982V24.967V24.4512L2.44716 24.4241C2.7703 24.4033 2.93596 24.3186 3.02958 24.1254C3.08394 24.0125 3.08505 23.939 3.08505 23.5825C3.08505 23.0803 3.03118 22.9802 2.80771 22.8495C2.67181 22.7722 2.65055 22.7528 2.19756 22.7409H1.72607V24.1254ZM2.5581 23.2567C2.60642 23.3102 2.61357 23.3749 2.61357 23.6096C2.61357 23.8711 2.62454 23.8819 2.5581 23.9354C2.50978 23.974 2.43588 23.9897 2.33623 23.9897H2.16982V23.5825V23.2024H2.33623C2.46306 23.2024 2.5128 23.2091 2.5581 23.2567Z" fill="white"/>
<path d="M5.1377 24.1254V25.51H5.35957H5.55371L5.58144 24.6956V23.854L5.77558 24.4241L5.94199 24.9942H6.08066C6.20251 24.9942 6.18582 25.0107 6.21933 24.8856C6.23761 24.8171 6.32817 24.5232 6.41347 24.2612L6.57987 23.7997V24.6413V25.51H6.77401H6.99588V24.1254V22.7409H6.77401H6.55214L6.41347 23.1209C6.3434 23.3383 6.25252 23.6876 6.19159 23.8811C6.12762 24.0746 6.06206 24.24 6.05292 24.234C6.04683 24.2251 5.98432 24.0077 5.91425 23.7725C5.84114 23.5403 5.74416 23.2092 5.69238 23.0395L5.58144 22.7409H5.35957H5.1377V24.1254Z" fill="white"/>
<path d="M7.38428 24.1254V25.51H7.60615H7.82802V24.3426V23.1752H8.1331H8.41044V22.9581V22.7409H7.91123H7.38428V24.1254Z" fill="white"/>
<path d="M8.66016 24.1254V25.51H8.90976H9.13164V24.967V24.4512H9.32578C9.5579 24.4512 9.78399 24.3624 9.88046 24.2612C10.0221 24.1153 10.0469 23.9937 10.0469 23.6096C10.0469 23.1987 10.0041 23.0709 9.88046 22.9309C9.7448 22.779 9.5796 22.7409 9.07617 22.7409H8.66016V24.1254ZM9.49218 23.2567C9.54343 23.3073 9.57538 23.3383 9.57538 23.5825C9.57538 23.9308 9.53318 23.9897 9.29804 23.9897H9.13164V23.5825V23.1752H9.29804C9.40958 23.1752 9.44696 23.212 9.49218 23.2567Z" fill="white"/>
<path d="M10.7677 22.7951C10.7586 22.8249 10.6577 23.2334 10.5458 23.691C10.4369 24.1487 10.2765 24.7297 10.213 24.9942C10.1464 25.2616 10.1021 25.504 10.1021 25.51C10.1021 25.5159 10.1999 25.51 10.3239 25.51H10.5458L10.5735 25.4014C10.5887 25.342 10.6169 25.2466 10.629 25.1842L10.6567 25.0756H10.9341H11.2114L11.2669 25.2657L11.2946 25.4828L11.5442 25.51C11.7621 25.5189 11.7812 25.5032 11.7661 25.4557C11.751 25.3992 11.399 23.981 11.2114 23.2024L11.1005 22.7408H10.9341C10.81 22.7408 10.7798 22.7565 10.7677 22.7951ZM11.045 24.2069L11.1282 24.6412H10.9341C10.8373 24.6472 10.746 24.6472 10.7399 24.6412C10.7339 24.6353 10.7717 24.4234 10.8231 24.1797C10.8715 23.939 10.9311 23.7271 10.9341 23.7182C10.9401 23.6736 10.9663 23.8116 11.045 24.2069Z" fill="white"/>
<path d="M12.2376 23.7182C12.2376 24.3247 12.2312 24.7629 12.2099 24.8313C12.1702 24.974 12.0887 25.0485 11.988 25.0485H11.9048V25.51C11.9048 25.9946 11.9001 25.9987 12.0435 25.9987C12.0679 25.9987 12.1614 26.0017 12.2376 25.9987L12.3485 25.9715V25.7543V25.51H12.82H13.2638V25.7543V25.9715L13.4024 25.9987C13.4726 26.0017 13.5816 25.9957 13.6243 25.9987H13.6798L13.7075 25.5372V25.0485H13.5966H13.4857V23.9082V22.7409H12.8755H12.2376V23.7182ZM13.0142 24.1254V25.0485H12.7923C12.6764 25.0485 12.5704 25.0574 12.5704 25.0485C12.5704 25.0425 12.6015 24.9536 12.6259 24.8584C12.6594 24.7306 12.6536 24.5062 12.6536 23.9354V23.1752H12.8478H13.0142V24.1254Z" fill="white"/>
<path d="M15.4546 22.9581V23.1752H15.6765H15.8983V24.3426V25.51H16.1479H16.3976V24.3426V23.1752H16.6194H16.8413V22.9581V22.7409H16.1479H15.4546V22.9581Z" fill="white"/>
<path d="M17.0908 24.1254V25.51H17.3404H17.59V24.967V24.4512H17.7564C18.0998 24.4512 18.3465 24.3216 18.4498 24.0983C18.5318 23.9226 18.5318 23.2695 18.4498 23.0938C18.3252 22.8228 18.102 22.7409 17.4791 22.7409H17.0908V24.1254ZM17.9506 23.2567C18.0022 23.3073 18.006 23.3383 18.006 23.5825C18.006 23.9308 17.9657 23.9897 17.7287 23.9897H17.59V23.5825V23.1752H17.7287C17.8411 23.1752 17.905 23.212 17.9506 23.2567Z" fill="white"/>
<path d="M20.5581 24.1254V25.51H20.7522L20.9464 25.4829L21.2515 24.6684L21.5288 23.8268V24.6684V25.51H21.7507L21.9725 25.4829L22.0003 24.1254V22.7409H21.8061H21.612L21.3901 23.3381C21.2766 23.6623 21.1372 24.031 21.0851 24.1797L21.0019 24.4512L20.9741 23.5825V22.7409H20.78H20.5581V24.1254Z" fill="white"/>
</svg>
