<svg width="26" height="26" viewBox="0 0 26 26" fill="none" xmlns="http://www.w3.org/2000/svg">
<g clip-path="url(#clip0_242_119)">
<path fill-rule="evenodd" clip-rule="evenodd" d="M1.1993 1.15913L9.69358 1.15741L16.5321 17.7586L17.906 17.7452C18.2811 17.2658 19.5429 13.9334 19.8887 13.0925L21.7779 8.40607L20.0506 8.40796L17.2821 15.3931C16.8475 14.8258 11.5445 1.17592 11.0504 0.000342734L0.00239893 0L0 25.9997L14.4121 25.9842L13.9344 24.8496L1.15629 24.846L1.19947 1.15913H1.1993Z" fill="#535C68"/>
<path fill-rule="evenodd" clip-rule="evenodd" d="M7.82447 13.9975C7.88495 13.5746 8.68603 11.8132 8.95145 11.2008L9.24669 10.5525C9.33065 10.4149 9.32243 10.4331 9.40245 10.3486C9.75921 11.4832 10.6333 12.8745 10.9152 13.9826L7.82429 13.9975H7.82447ZM13.2939 1.11805L24.8303 1.16175C25.0067 2.10187 24.8629 19.1562 24.872 22.0305C24.8735 22.516 24.8761 23.0009 24.8761 23.4866C24.8761 23.816 25.0166 24.6591 24.7438 24.8473L17.384 24.8431L10.1137 8.31855L8.6192 8.33038L4.58008 17.6637L6.23226 17.6418L7.12501 15.4344L11.5529 15.4526L16.1262 25.9997L25.9966 25.9855L25.9997 0.000732422L12.8501 0.0060448L13.294 1.11788L13.2939 1.11805Z" fill="#535C68"/>
<path fill-rule="evenodd" clip-rule="evenodd" d="M24.7439 24.8471C25.0167 24.659 24.8762 23.8158 24.8762 23.4865C24.8762 23.001 24.8736 22.5159 24.8721 22.0304C24.863 19.1562 25.0067 2.10191 24.8304 1.16162L13.2939 1.11792C13.319 1.13369 13.3491 1.15665 13.3699 1.16419C13.9405 1.3748 18.1441 1.22468 19.0495 1.22999C20.9476 1.24079 22.8571 1.24268 24.7746 1.23496L24.7441 24.8471H24.7439Z" fill="#535C68"/>
</g>
<defs>
<clipPath id="clip0_242_119">
<rect width="26" height="26" fill="white"/>
</clipPath>
</defs>
</svg>
