<svg width="22" height="26" viewBox="0 0 22 26" fill="none" xmlns="http://www.w3.org/2000/svg">
<path d="M10.102 0.0176868C7.99474 0.202433 5.99771 0.940716 4.36106 2.16241C1.85295 4.03072 0.307808 6.75542 0.0345274 9.84543C-0.102113 11.3949 0.172617 13.1903 0.755616 14.6236C1.45096 16.3369 2.4837 17.7301 3.88958 18.913C5.5991 20.3522 7.83077 21.2561 10.102 21.4378C10.8004 21.4915 11.9418 21.4517 12.5704 21.3564C13.791 21.1746 14.7681 20.8704 15.843 20.3519C18.9918 18.8352 21.2324 15.936 21.8336 12.5331C22.0401 11.371 22.0214 10.0388 21.8059 8.84094C21.5265 7.27656 20.8426 5.72716 19.8922 4.44289C19.4823 3.89163 19.1508 3.51356 18.6164 3.00402C16.8644 1.33536 14.6811 0.33983 12.1821 0.044836C11.8208 0.000139236 10.4786 -0.0150909 10.102 0.0176868ZM12.4872 2.08097C12.5418 2.10183 12.6358 2.1601 12.6813 2.21671C12.7603 2.3061 12.7489 2.31835 12.7368 2.4882C12.7216 2.72956 12.6491 2.81828 12.3485 2.92257C12.0722 3.01793 7.99298 4.25913 7.07901 4.52433C6.51119 4.6912 6.05284 4.8809 6.05284 4.93156C6.05284 4.96732 6.12129 4.98883 6.57979 5.23019C6.82271 5.35832 7.08023 5.51128 7.16221 5.55597C7.24723 5.60067 7.542 5.74469 7.8001 5.88175C8.0582 6.01584 8.52565 6.23667 8.82626 6.39758C10.0378 7.0412 10.0889 7.07927 10.6567 7.07629C11.2336 7.07331 11.6704 6.98425 12.9032 6.61476C13.3283 6.48663 14.0628 6.26912 14.5395 6.12609C15.9757 5.69403 16.907 5.42255 17.1742 5.36593C17.5417 5.28846 18.0826 5.30965 18.45 5.39308C18.9966 5.51823 19.4817 5.81024 19.6426 6.12609C19.7398 6.3168 19.7276 6.56576 19.6426 6.75051C19.5181 7.0157 19.1267 7.22659 18.4223 7.42922C18.1976 7.49477 17.3657 7.75797 16.5641 7.99933C15.7625 8.24069 14.7207 8.54396 14.2622 8.67805C12.7804 9.11905 12.4515 9.26405 12.1266 9.57394C11.9171 9.76763 11.8086 9.98183 11.7661 10.2798C11.7479 10.399 11.7383 12.0252 11.7383 14.3792C11.7383 16.8822 11.7288 18.3263 11.7106 18.4515C11.6469 18.8448 11.4132 19.1742 11.1005 19.3202C10.9578 19.3858 10.8875 19.4017 10.6567 19.4017C10.4108 19.4017 10.3614 19.3795 10.1852 19.2931C9.90892 19.159 9.63156 18.8614 9.49188 18.5872C9.30058 18.2028 9.27304 18.1724 9.27001 15.8452C9.26394 12.3202 9.23843 10.0454 9.18681 9.87258C9.08357 9.53885 8.85297 9.20049 8.57665 9.00383C8.48252 8.93827 8.22541 8.81246 8.02197 8.70519C7.81853 8.59792 7.42598 8.37147 7.13448 8.21652C6.84298 8.05859 6.19331 7.72454 5.6923 7.45637C5.19128 7.19117 4.55762 6.85745 4.30559 6.72336C3.78939 6.44028 3.50231 6.28865 3.36263 6.26183C3.18044 6.23204 3.18671 6.0204 3.16849 10.6599C3.15331 14.8643 3.14905 14.896 3.08529 14.9765C2.97597 15.1225 2.88264 15.1665 2.72474 15.1665C2.53648 15.1665 2.38464 15.0801 2.30873 14.9222C2.248 14.8 2.27189 14.768 2.281 10.5784C2.28707 6.73455 2.29092 6.33269 2.33646 6.20754C2.52472 5.6831 2.79926 5.41394 3.25169 5.39308C3.67983 5.37222 3.87062 5.4371 5.49816 6.31613C5.91719 6.54259 6.51968 6.88227 6.8294 7.04914C7.98629 7.66595 8.81696 8.11554 9.0204 8.24367C9.54267 8.57442 9.86782 9.00911 10.0743 9.68254L10.1575 9.92687V13.8905C10.1666 16.0688 10.2008 17.894 10.213 17.9357C10.2251 17.9774 10.2533 18.036 10.2684 18.0986C10.317 18.2803 10.5387 18.5329 10.6845 18.5329C10.8089 18.5329 10.8079 18.582 10.8231 14.2435L10.8509 10.0898L10.9063 9.87258C11.1462 9.17829 11.5955 8.72804 12.3485 8.37941C12.6491 8.23936 12.7474 8.21388 14.2899 7.755C14.8486 7.58813 15.6108 7.37062 15.9539 7.26633C16.2971 7.16203 16.9467 6.96306 17.3961 6.83195C18.304 6.56377 18.6442 6.43035 18.6442 6.39758C18.6442 6.35884 18.3905 6.27938 18.1172 6.23468C17.8895 6.19595 17.7903 6.20489 17.5625 6.23468C17.1314 6.28832 17.0672 6.30486 14.4286 7.10344C12.8101 7.59212 12.6641 7.61793 12.1266 7.755C10.827 8.08277 10.0769 8.04536 9.21454 7.61926C8.94733 7.48517 8.12902 7.05842 7.24541 6.58762C6.95391 6.42969 6.54881 6.21515 6.33019 6.09894C6.1146 5.98571 5.85101 5.85394 5.74777 5.80031C5.32266 5.57385 5.08215 5.27423 5.08215 4.93156C5.08215 4.43096 5.5644 4.03235 6.49659 3.76418C7.13728 3.57943 10.8837 2.44682 11.4333 2.27101C11.8887 2.125 12.2301 2.03263 12.3485 2.02667C12.3698 2.02369 12.4325 2.05713 12.4872 2.08097Z" fill="#535C68"/>
<path d="M20.7797 22.0622C20.8347 22.3628 20.964 22.5058 21.2512 22.5237C21.41 22.5326 21.4677 22.5289 21.5562 22.4694C21.7059 22.3711 21.7567 22.253 21.7781 22.0893L21.8059 21.9536H21.6117C21.4681 21.9536 21.4176 21.9721 21.4176 22.0079C21.4176 22.1002 21.3461 22.1979 21.2789 22.1979C21.1995 22.1979 21.1677 22.1511 21.1402 22.035C21.1219 21.9576 21.1233 21.9536 20.9461 21.9536H20.752L20.7797 22.0622Z" fill="#535C68"/>
<path d="M3.88942 22.7679C3.61599 22.836 3.47262 22.9779 3.41794 23.2295C3.39667 23.3271 3.38413 23.6895 3.39021 24.234C3.39932 25.0389 3.41265 25.0989 3.47341 25.2113C3.5524 25.3563 3.61404 25.4266 3.75075 25.4828C4.01202 25.5864 4.37922 25.5617 4.58277 25.4285C4.63746 25.39 4.70665 25.2823 4.74918 25.2113L4.83238 25.0756V24.1525C4.83238 23.2411 4.83768 23.182 4.77691 23.0666C4.74046 23.0015 4.67166 22.9303 4.63824 22.9037C4.49242 22.7764 4.12335 22.7117 3.88942 22.7679ZM4.30543 23.2838C4.36619 23.3577 4.3609 23.4127 4.3609 24.1525C4.3609 24.8923 4.36619 24.9201 4.30543 24.9941C4.25682 25.0533 4.20244 25.0756 4.11129 25.0756C4.02015 25.0756 3.9935 25.0533 3.94489 24.9941C3.88413 24.9201 3.86169 24.8923 3.86169 24.1525C3.86169 23.4127 3.88413 23.3577 3.94489 23.2838C3.9935 23.2246 4.02015 23.2023 4.11129 23.2023C4.20244 23.2023 4.25682 23.2246 4.30543 23.2838Z" fill="#535C68"/>
<path d="M14.4288 22.768C14.2606 22.8191 14.0855 22.9795 14.0405 23.1481C13.9954 23.3046 13.9984 24.9433 14.0405 25.1028C14.0615 25.172 14.1318 25.2749 14.2069 25.3471C14.4562 25.5969 14.9006 25.5969 15.1498 25.3471C15.294 25.2057 15.344 25.078 15.344 24.8041V24.6141H15.0944H14.8725V24.777C14.8725 24.9756 14.8105 25.0756 14.6784 25.0756C14.5102 25.0756 14.4842 25.0463 14.4842 24.1254C14.4842 23.349 14.4886 23.2747 14.5397 23.2295C14.5697 23.1994 14.6363 23.1752 14.6784 23.1752C14.7985 23.1752 14.8725 23.2813 14.8725 23.4739V23.6367H15.0944H15.344V23.4467C15.344 23.1909 15.3037 23.0452 15.1776 22.9037C15.0064 22.7141 14.7141 22.6777 14.4288 22.768Z" fill="#535C68"/>
<path d="M19.2543 22.7681C19.1087 22.8008 18.9418 22.9359 18.866 23.0667C18.8205 23.1529 18.8105 23.2515 18.8105 24.1255C18.8105 25.2077 18.8076 25.2108 19.0047 25.3743C19.3049 25.6211 19.9169 25.5842 20.1141 25.2929C20.2323 25.1145 20.2649 24.9088 20.2527 24.0169C20.2436 23.2559 20.2302 23.1767 20.1695 23.0667C20.0907 22.9211 20.0408 22.8547 19.8922 22.7952C19.7497 22.7358 19.415 22.7294 19.2543 22.7681ZM19.698 23.2568C19.7526 23.3162 19.7535 23.3704 19.7535 24.1255C19.7535 24.8806 19.7526 24.962 19.698 25.0214C19.6586 25.063 19.6044 25.0757 19.5316 25.0757C19.2951 25.0757 19.282 25.0289 19.282 24.0984C19.282 23.3462 19.2799 23.3132 19.3375 23.2568C19.4224 23.1735 19.6192 23.1735 19.698 23.2568Z" fill="#535C68"/>
<path d="M0.00683594 24.1254V25.51H0.228709H0.450583V24.3426V23.1752H0.644722H0.866595V24.3426V25.51H1.08847H1.33808V24.1254V22.7409H0.672456H0.00683594V24.1254Z" fill="#535C68"/>
<path d="M1.72656 24.1254V25.51H1.94844H2.17031V24.967V24.4512L2.44765 24.4241C2.77079 24.4033 2.93645 24.3186 3.03007 24.1254C3.08443 24.0125 3.08554 23.939 3.08554 23.5825C3.08554 23.0803 3.03167 22.9802 2.8082 22.8495C2.6723 22.7722 2.65104 22.7528 2.19804 22.7409H1.72656V24.1254ZM2.55859 23.2567C2.60691 23.3102 2.61406 23.3749 2.61406 23.6096C2.61406 23.8711 2.62503 23.8819 2.55859 23.9354C2.51027 23.974 2.43637 23.9897 2.33671 23.9897H2.17031V23.5825V23.2024H2.33671C2.46355 23.2024 2.51329 23.2091 2.55859 23.2567Z" fill="#535C68"/>
<path d="M5.1377 24.1254V25.51H5.35957H5.55371L5.58144 24.6956V23.854L5.77558 24.4241L5.94199 24.9942H6.08066C6.20251 24.9942 6.18582 25.0107 6.21933 24.8856C6.23761 24.8171 6.32817 24.5232 6.41347 24.2612L6.57987 23.7997V24.6413V25.51H6.77401H6.99588V24.1254V22.7409H6.77401H6.55214L6.41347 23.1209C6.3434 23.3383 6.25252 23.6876 6.19159 23.8811C6.12762 24.0746 6.06206 24.24 6.05292 24.234C6.04683 24.2251 5.98431 24.0077 5.91425 23.7725C5.84114 23.5403 5.74416 23.2092 5.69238 23.0395L5.58144 22.7409H5.35957H5.1377V24.1254Z" fill="#535C68"/>
<path d="M7.38379 24.1254V25.51H7.60566H7.82754V24.3426V23.1752H8.13261H8.40995V22.9581V22.7409H7.91074H7.38379V24.1254Z" fill="#535C68"/>
<path d="M8.66016 24.1254V25.51H8.90976H9.13164V24.967V24.4512H9.32578C9.5579 24.4512 9.78399 24.3624 9.88046 24.2612C10.0221 24.1153 10.0469 23.9937 10.0469 23.6096C10.0469 23.1987 10.0041 23.0709 9.88046 22.9309C9.7448 22.779 9.5796 22.7409 9.07617 22.7409H8.66016V24.1254ZM9.49218 23.2567C9.54343 23.3073 9.57538 23.3383 9.57538 23.5825C9.57538 23.9308 9.53318 23.9897 9.29804 23.9897H9.13164V23.5825V23.1752H9.29804C9.40958 23.1752 9.44696 23.212 9.49218 23.2567Z" fill="#535C68"/>
<path d="M10.7672 22.7952C10.7581 22.8249 10.6573 23.2334 10.5453 23.6911C10.4364 24.1488 10.276 24.7297 10.2125 24.9942C10.1459 25.2617 10.1016 25.5041 10.1016 25.5101C10.1016 25.516 10.1994 25.5101 10.3234 25.5101H10.5453L10.573 25.4015C10.5882 25.342 10.6164 25.2467 10.6285 25.1843L10.6562 25.0757H10.9336H11.2109L11.2664 25.2657L11.2941 25.4829L11.5437 25.5101C11.7616 25.519 11.7807 25.5033 11.7656 25.4558C11.7505 25.3993 11.3985 23.9811 11.2109 23.2024L11.1 22.7409H10.9336C10.8095 22.7409 10.7793 22.7566 10.7672 22.7952ZM11.0445 24.2069L11.1277 24.6413H10.9336C10.8368 24.6472 10.7455 24.6472 10.7394 24.6413C10.7334 24.6354 10.7712 24.4235 10.8227 24.1798C10.8711 23.9391 10.9306 23.7272 10.9336 23.7183C10.9396 23.6737 10.9659 23.8117 11.0445 24.2069Z" fill="#535C68"/>
<path d="M12.2371 23.7182C12.2371 24.3247 12.2307 24.7629 12.2094 24.8313C12.1697 24.974 12.0882 25.0485 11.9875 25.0485H11.9043V25.51C11.9043 25.9946 11.8996 25.9987 12.043 25.9987C12.0674 25.9987 12.1609 26.0017 12.2371 25.9987L12.3481 25.9715V25.7543V25.51H12.8195H13.2633V25.7543V25.9715L13.402 25.9987C13.4721 26.0017 13.5811 25.9957 13.6238 25.9987H13.6793L13.707 25.5372V25.0485H13.5961H13.4852V23.9082V22.7409H12.875H12.2371V23.7182ZM13.0137 24.1254V25.0485H12.7918C12.6759 25.0485 12.5699 25.0574 12.5699 25.0485C12.5699 25.0425 12.601 24.9536 12.6254 24.8584C12.659 24.7306 12.6531 24.5062 12.6531 23.9354V23.1752H12.8473H13.0137V24.1254Z" fill="#535C68"/>
<path d="M15.4551 22.9581V23.1752H15.677H15.8988V24.3426V25.51H16.1484H16.398V24.3426V23.1752H16.6199H16.8418V22.9581V22.7409H16.1484H15.4551V22.9581Z" fill="#535C68"/>
<path d="M17.0908 24.1254V25.51H17.3404H17.59V24.967V24.4512H17.7564C18.0998 24.4512 18.3465 24.3216 18.4498 24.0983C18.5318 23.9226 18.5318 23.2695 18.4498 23.0938C18.3252 22.8228 18.102 22.7409 17.4791 22.7409H17.0908V24.1254ZM17.9506 23.2567C18.0022 23.3073 18.006 23.3383 18.006 23.5825C18.006 23.9308 17.9657 23.9897 17.7287 23.9897H17.59V23.5825V23.1752H17.7287C17.8411 23.1752 17.905 23.212 17.9506 23.2567Z" fill="#535C68"/>
<path d="M20.5576 24.1254V25.51H20.7518L20.9459 25.4829L21.251 24.6684L21.5283 23.8268V24.6684V25.51H21.7502L21.9721 25.4829L21.9998 24.1254V22.7409H21.8057H21.6115L21.3896 23.3381C21.2761 23.6623 21.1367 24.031 21.0846 24.1797L21.0014 24.4512L20.9736 23.5825V22.7409H20.7795H20.5576V24.1254Z" fill="#535C68"/>
</svg>
