<svg width="23" height="26" viewBox="0 0 23 26" fill="none" xmlns="http://www.w3.org/2000/svg">
<path d="M8.34375 13V26L8.61612 25.9347C8.76311 25.8975 9.4289 25.7203 10.0947 25.5432C10.7605 25.3661 11.7159 25.1144 12.2131 24.9839C12.7146 24.858 13.2031 24.7275 13.3069 24.6995L13.4885 24.6436V24.4199C13.4885 24.2054 13.4971 24.1915 13.5879 24.2148C14.4137 24.4199 14.3704 24.4199 15.0968 24.2194C15.4124 24.1355 16.2597 23.9118 16.9817 23.7207L18.2874 23.3758V22.9889V22.5973L18.603 22.6253C18.7716 22.6393 19.2947 22.6766 19.7616 22.7046L20.609 22.7558L21.6639 22.4762C22.2432 22.3223 22.7836 22.1825 22.8614 22.1639L22.9998 22.1312V14.9344V7.73288L21.8498 7.12693C21.2142 6.79598 20.6479 6.52564 20.583 6.52564C20.5225 6.52564 20.1896 6.58623 19.8437 6.66081C19.4979 6.73539 19.1477 6.80531 19.0656 6.82395L18.9142 6.85192L18.6116 6.06418L18.309 5.27178L17.8334 5.0294C17.574 4.89423 16.8607 4.52133 16.2554 4.20437C15.6501 3.88741 14.9887 3.54249 14.7855 3.43994L14.418 3.2535L14.0073 3.40731C13.7825 3.49121 13.5706 3.56579 13.5447 3.57978C13.5015 3.59376 13.4885 3.49588 13.4885 3.17426V2.74543L11.3614 1.61276C10.1898 0.988167 9.03116 0.372894 8.78905 0.237719L8.34375 0V13Z" fill="#535C68"/>
<path d="M1.9282 4.36758C2.17895 4.76378 2.17895 4.79641 2.19624 7.47658C2.20489 9.6114 2.20056 9.97031 2.14004 10.1894C1.93684 10.9492 1.23647 11.8115 0.328571 12.4174C0.146993 12.5433 0 12.6505 0 12.6645C0 12.6738 0.129699 12.6691 0.293985 12.6551C0.453947 12.6365 0.773872 12.6458 1.00733 12.6738C1.69474 12.7577 1.98872 12.9768 2.13571 13.5128C2.19624 13.7365 2.20489 14.2353 2.20489 17.6985C2.20489 22.0334 2.20489 22.0567 1.93684 22.6207C1.76391 22.9983 1.43102 23.3665 1.11109 23.539C0.808459 23.7021 0.812782 23.7021 1.32293 23.6089C1.53477 23.5669 1.98872 23.483 2.33459 23.4224C2.68045 23.3572 3.0047 23.2966 3.0609 23.2826L3.15602 23.2593V14.0115V4.76378L2.71504 4.57734C2.46861 4.47013 2.1703 4.34428 2.04492 4.293L1.82011 4.19978L1.9282 4.36758Z" fill="#535C68"/>
<path d="M7.32782 7.55585C7.09003 7.63509 6.73985 7.74696 6.5453 7.80755L6.19511 7.92408L5.57255 9.37837L4.95 10.8327L4.93703 9.56015C4.92838 8.37622 4.91973 8.28765 4.85056 8.32028C4.81165 8.33427 4.59116 8.41351 4.36635 8.48808C4.14154 8.56732 3.86485 8.66055 3.74812 8.69784L3.54492 8.77242L3.55357 13.0887L3.56654 17.4096H4.23665H4.90676L4.91973 15.5451L4.9327 13.6806L5.65902 15.5451L6.38534 17.4096L7.21541 17.4235C7.66936 17.4282 8.04116 17.4235 8.04116 17.4096C8.04116 17.3956 7.96334 17.1905 7.87255 16.9528C7.78176 16.715 7.31917 15.5311 6.85225 14.3145L6.00488 12.1005L6.08703 11.8907C6.23834 11.5039 6.9906 9.64405 7.43158 8.55334C7.67368 7.96603 7.86823 7.46729 7.86823 7.44864C7.86823 7.39271 7.79473 7.40669 7.32782 7.55585Z" fill="#535C68"/>
</svg>
